<?xml version="1.0" encoding="utf-8"?>
<svg viewBox="15 -110 380 202" width="380" height="202" xmlns="http://www.w3.org/2000/svg">
  <path d="M 171.397 -73.993 L 173.384 -73.487 C 180.088 -69.397 183.303 -66.816 183.03 -65.743 L 182.535 -65.869 L 179.445 -68.237 L 179.813 -67.616 L 179.561 -66.628 C 179.422 -66.085 176.398 -65.976 170.488 -66.3 L 169.865 -65.922 L 169.878 -68.034 L 169.384 -68.16 L 168.625 -65.185 C 164.323 -66.282 159.838 -63.198 155.172 -55.933 L 154.035 -53.58 L 153.998 -45.138 L 152.896 -47.008 L 153.39 -46.882 C 151.722 -51.401 151.156 -54.714 151.693 -56.82 L 151.948 -57.818 C 152.906 -61.577 155.614 -65.29 160.071 -68.956 L 157.591 -69.588 C 154.336 -67.859 152.172 -64.888 151.097 -60.676 C 150.063 -56.62 150.456 -52.643 152.276 -48.745 L 152.15 -48.251 C 149.528 -51.782 148.801 -55.84 149.971 -60.427 L 150.351 -61.919 C 151.384 -65.97 153.552 -68.939 156.855 -70.829 L 158.337 -70.451 L 160.198 -69.45 L 165.297 -70.791 L 165.423 -71.286 L 163.069 -72.412 C 161.278 -72.298 160.24 -71.682 159.955 -70.564 L 158.967 -70.816 L 158.223 -72.069 C 160.344 -73.289 162.044 -73.737 163.323 -73.41 L 164.687 -72.526 L 164.069 -74.273 C 166.888 -74.614 169.33 -74.521 171.397 -73.993 Z M 165.93 -73.272 L 166.043 -71.654 L 175.852 -70.742 L 175.978 -71.236 L 170.775 -73.616 C 167.691 -73.962 166.076 -73.847 165.93 -73.272 Z M 174.483 -69.502 L 169.396 -70.273 L 170.74 -67.288 L 178.32 -67.997 L 178.446 -68.491 L 174.483 -69.502 Z M 152.691 -56.565 L 152.54 -51.846 L 153.035 -51.72 C 154.975 -59.33 158.599 -63.869 163.906 -65.336 C 166.576 -66.148 168.111 -67.339 168.512 -68.909 L 168.766 -69.907 L 168.272 -70.033 C 159.761 -68.412 154.567 -63.923 152.691 -56.565 Z M 149.378 -66.399 L 150.628 -67.133 L 148.617 -61.309 L 148.236 -59.817 C 146.349 -52.414 150.244 -44.905 159.923 -37.291 L 159.784 -34.684 L 160.288 -34.556 L 160.921 -37.036 C 167.643 -34.393 170.904 -32.681 170.705 -31.899 L 170.082 -31.521 L 169.956 -31.027 L 175.046 -32.371 L 174.794 -31.383 C 174.593 -30.595 172.314 -29.941 167.957 -29.421 C 165.507 -27.583 162.897 -27.017 160.125 -27.724 L 158.643 -28.102 C 155.335 -28.945 153.765 -29.697 153.933 -30.356 L 155.428 -32.09 L 154.934 -32.216 C 154.745 -31.473 153.792 -31.19 152.076 -31.366 L 148.113 -34.482 L 148.367 -35.48 L 150.605 -35.962 L 151.1 -35.836 L 150.479 -35.467 L 150.227 -34.479 C 152.105 -33.56 152.97 -32.81 152.822 -32.228 L 155.554 -32.584 L 151.72 -36.204 L 151.594 -35.71 L 151.226 -36.33 L 147.505 -36.226 C 146.717 -36.427 145.565 -38.131 144.051 -41.338 L 144.671 -41.706 C 142.688 -42.212 142.088 -46.768 142.872 -55.374 L 147.263 -64.296 L 147.757 -64.17 L 147.629 -63.666 L 144.239 -56.605 L 143.48 -53.63 C 142.237 -48.753 143.827 -43.239 148.251 -37.088 L 150.86 -36.96 C 145.805 -44.764 144.015 -51.56 145.491 -57.348 L 148.872 -64.412 L 148.755 -66.021 L 149.124 -65.401 L 149.627 -65.272 L 149.25 -65.895 L 149.378 -66.399 Z M 147.757 -64.17 L 148.009 -65.158 L 148.503 -65.032 L 148.251 -64.044 L 147.757 -64.17 Z M 147.606 -59.451 L 147.112 -59.577 L 145.973 -55.11 C 144.413 -48.992 147.776 -42.146 156.061 -34.571 L 159.278 -32.698 C 159.92 -35.217 158.278 -37.748 154.351 -40.29 C 148.4 -47.36 146.152 -53.747 147.606 -59.451 Z M 165.25 -33.29 L 161.529 -35.292 L 159.782 -32.569 L 163.745 -31.559 L 168.832 -30.788 L 169.213 -32.28 L 165.25 -33.29 Z M 159.895 -30.951 L 156.543 -32.332 L 155.91 -29.851 L 159.263 -28.47 C 161.782 -27.828 163.976 -28.149 165.845 -29.434 L 159.895 -30.951 ZM 201.933 -55.732 L 205.017 -62.194 L 205.486 -61.97 L 204.844 -59.44 L 204.164 -59.2 L 204.645 -57.84 L 202.403 -55.508 L 201.933 -55.732 Z M 222.064 -44.42 L 225.811 -52.272 L 226.28 -52.048 L 225.439 -47.918 L 224.519 -48.357 L 222.753 -44.657 L 215.652 -32.167 L 217.739 -30.595 L 218.199 -30.376 L 218.423 -30.845 L 221.929 -39.377 L 222.812 -41.227 L 223.272 -41.008 L 218.909 -29.472 L 221.22 -28.37 L 224.814 -44.239 L 225.038 -44.708 L 225.507 -44.484 L 222.601 -27.711 L 225.38 -26.384 L 225.161 -25.924 L 222.631 -26.566 L 220.886 -21.726 L 220.426 -21.945 L 220.666 -21.265 L 219.564 -18.955 L 215.91 -18.427 L 215.441 -18.651 L 218.613 -20.539 L 221.021 -26.769 L 219.631 -27.432 L 218.947 -27.183 L 218.711 -27.871 L 210.859 -31.618 L 194.875 -40.94 L 194.655 -40.48 C 194.213 -39.553 195.233 -38.121 197.714 -36.184 L 199.104 -35.521 L 199.323 -35.981 L 199.526 -37.591 L 200.751 -33.028 L 199.361 -33.692 L 198.719 -31.162 L 198.28 -30.241 L 193.507 -28.552 L 197.646 -27.707 C 193.463 -22.515 190.216 -20.471 187.906 -21.574 L 187.445 -21.793 L 187.665 -22.253 C 189.398 -21.427 191.661 -22.995 194.453 -26.959 L 194.673 -27.419 L 194.203 -27.643 L 191.673 -28.285 C 192.878 -29.417 194.547 -30.135 196.679 -30.44 C 198.003 -33.213 197.894 -34.968 196.354 -35.703 L 196.113 -36.383 L 195.644 -36.607 L 186.985 -22.013 L 187.445 -21.793 C 185.95 -20.239 184.893 -19.61 184.273 -19.905 L 183.353 -20.345 L 184.915 -22.435 L 184.455 -22.655 C 185.474 -23.211 187.935 -26.387 191.838 -32.184 L 190.888 -33.768 L 189.038 -34.651 L 185.693 -30.009 C 184.659 -27.053 184.319 -24.755 184.675 -23.115 L 184.214 -23.335 C 183.095 -23.869 183.428 -26.547 185.211 -31.369 L 187.86 -36.919 L 190.187 -34.668 L 190.647 -34.448 L 190.867 -34.908 C 189.982 -35.33 189.506 -36.314 189.439 -37.861 L 190.761 -40.632 L 191.222 -40.412 L 192.413 -38.148 L 193.093 -38.389 L 192.67 -36.319 L 191.733 -37.908 L 190.36 -37.422 L 192.278 -33.105 L 194.943 -37.506 L 193.494 -41.599 L 193.034 -41.819 L 192.632 -38.609 C 192.019 -38.901 191.843 -40.119 192.104 -42.262 L 189.334 -43.584 L 189.553 -44.044 C 192.531 -43.148 194.727 -44.183 196.143 -47.149 L 201.249 -55.483 L 201.709 -55.263 L 200.168 -52.032 L 194.618 -42.769 L 195.078 -42.55 L 202.956 -37.649 L 203.64 -37.899 C 203.123 -36.816 206.833 -34.289 214.77 -30.317 L 220.78 -27.449 L 221 -27.909 L 207.091 -36.818 L 207.31 -37.278 L 210.06 -37.096 L 214.491 -33.286 L 214.952 -33.067 L 222.064 -44.42 Z M 225.22 -47.458 L 225.68 -47.238 L 225.456 -46.769 L 224.117 -45.147 L 223.657 -45.367 L 224.536 -47.208 L 225.22 -47.458 Z M 203.543 -55.529 L 204.202 -56.91 L 204.662 -56.691 L 204.003 -55.31 L 203.543 -55.529 Z M 224.578 -44.928 L 225.017 -45.848 L 225.477 -45.628 L 225.038 -44.708 L 224.578 -44.928 Z M 201.097 -51.588 L 203.083 -55.749 L 203.543 -55.529 L 201.558 -51.369 L 201.097 -51.588 Z M 203.34 -53.92 L 204.003 -55.31 L 204.463 -55.09 L 203.8 -53.7 L 203.34 -53.92 Z M 222.352 -41.447 L 223.893 -44.678 L 224.354 -44.458 L 222.812 -41.227 L 222.352 -41.447 Z M 203.581 -53.24 L 203.8 -53.7 L 204.27 -53.476 L 201.951 -42.672 L 206.102 -40.691 L 204.079 -38.82 C 204.542 -38.599 205.3 -38.994 206.352 -40.007 L 208.903 -38.224 L 207.31 -37.278 L 207.07 -37.958 L 206.149 -38.397 L 203.64 -37.899 C 204.375 -39.439 203.356 -40.871 200.582 -42.195 L 195.978 -43.25 L 198.47 -44.898 L 201.558 -51.369 L 202.018 -51.149 L 199.171 -43.998 L 201.021 -43.115 L 203.581 -53.24 Z M 202.132 -32.37 L 200.687 -36.471 L 201.148 -36.252 C 202.334 -34.171 203.427 -32.893 204.425 -32.416 L 218.026 -27.622 L 216.924 -25.311 L 209.849 -11.668 L 209.16 -11.432 C 212.577 -11.456 215.066 -13.105 216.628 -16.378 L 216.848 -16.838 L 214.998 -17.721 L 215.221 -18.19 L 219.361 -17.345 L 219.141 -16.885 C 217.175 -12.764 213.701 -10.639 208.721 -10.511 C 208.132 -9.278 207.531 -8.808 206.917 -9.1 L 205.997 -9.54 C 211.376 -17.654 215.002 -23.676 216.877 -27.605 L 216.417 -27.825 L 213.427 -28.687 L 212.544 -26.836 L 213.773 -22.283 L 210.542 -23.825 L 207.674 -17.814 C 206.959 -16.316 206.684 -14.556 206.85 -12.534 L 205.929 -12.974 C 205.712 -16.482 206.412 -19.93 208.028 -23.318 L 209.35 -26.089 L 212.612 -23.402 L 212.831 -23.863 C 211.216 -25.246 210.878 -26.922 211.817 -28.889 L 202.601 -32.146 L 202.132 -32.37 Z M 213.857 -17.7 L 214.301 -18.63 L 214.778 -17.261 L 213.857 -17.7 ZM 262.813 -27.304 L 265.473 -29.152 L 265.882 -28.847 L 249.766 -11.485 C 251.084 -10.396 251.462 -9.475 250.9 -8.721 L 250.187 -8.616 L 250.596 -8.312 C 252.11 -6.919 252.625 -5.896 252.139 -5.243 L 250.396 -7.189 L 248.342 -8.718 L 248.647 -9.127 L 249.361 -9.231 L 249.665 -9.64 L 249.256 -9.945 L 247.412 -10.046 L 248.325 -11.274 L 244.218 -14.331 L 244.529 -14.748 C 245.694 -13.88 249.067 -15.837 254.645 -20.618 L 255.055 -20.314 L 254.135 -19.079 L 246.478 -13.933 L 248.122 -12.709 C 248.946 -12.096 253.368 -16.039 261.389 -24.537 L 262.1 -27.199 L 262.918 -26.59 L 262.813 -27.304 Z M 263.129 -25.149 L 264.658 -27.203 L 265.067 -26.898 L 264.357 -24.236 L 263.643 -24.131 L 263.234 -24.435 L 263.129 -25.149 Z M 260.467 -25.86 L 261.076 -26.678 L 261.485 -26.373 L 260.876 -25.555 L 260.467 -25.86 Z M 262.01 -22.791 L 264.469 -23.516 L 264.165 -23.107 L 261.81 -21.668 L 253.174 -3.201 L 252.765 -3.506 L 251.834 -4.834 L 252.548 -4.939 C 255.926 -12.904 259.08 -18.855 262.01 -22.791 Z M 259.443 -25.338 L 260.058 -26.164 L 260.467 -25.86 L 259.852 -25.033 L 259.443 -25.338 Z M 259.652 -23.911 L 260.876 -25.555 L 261.285 -25.25 L 260.061 -23.606 L 259.652 -23.911 Z M 263.245 -21.871 L 263.86 -22.698 L 264.269 -22.393 L 263.654 -21.567 L 263.245 -21.871 Z M 258.416 -24.83 L 259.025 -25.648 L 259.443 -25.338 L 258.833 -24.52 L 258.416 -24.83 Z M 263.045 -20.749 L 263.654 -21.567 L 264.063 -21.262 L 263.454 -20.444 L 263.045 -20.749 Z M 257.398 -24.316 L 258.007 -25.135 L 258.416 -24.83 L 257.807 -24.012 L 257.398 -24.316 Z M 258.018 -22.571 L 259.243 -24.215 L 259.652 -23.911 L 258.428 -22.266 L 258.018 -22.571 Z M 261.604 -20.538 L 262.523 -21.773 L 262.941 -21.462 L 262.021 -20.227 L 261.604 -20.538 Z M 262.839 -19.618 L 263.454 -20.444 L 263.863 -20.14 L 263.248 -19.313 L 262.839 -19.618 Z M 256.374 -23.795 L 256.989 -24.621 L 257.398 -24.316 L 256.783 -23.49 L 256.374 -23.795 Z M 261.107 -19 L 262.021 -20.227 L 262.43 -19.923 L 261.516 -18.695 L 261.107 -19 Z M 262.639 -18.495 L 263.248 -19.313 L 263.657 -19.009 L 263.048 -18.191 L 262.639 -18.495 Z M 255.965 -24.099 L 256.374 -23.795 L 255.765 -22.977 L 241.146 -15.346 L 252.974 -2.078 L 253.383 -1.774 L 253.688 -2.183 L 252.87 -2.792 L 253.174 -3.201 L 253.583 -2.897 L 255.741 -0.654 C 256.52 -5.128 258.344 -11.005 261.212 -18.286 L 261.516 -18.695 L 261.926 -18.391 C 258.912 -11.484 257.262 -5.265 256.977 0.265 L 257.795 0.874 C 259.805 -1.826 261.12 -6.166 261.74 -12.146 L 262.546 -16.645 L 262.856 -17.062 L 263.265 -16.758 L 261.261 -2.928 L 260.037 -1.284 L 260.454 -0.973 L 261.063 -1.792 C 261.78 -1.258 261.511 0.242 260.258 2.707 L 257.197 4.256 L 257.296 4.978 L 256.478 4.369 L 256.788 3.952 L 259.744 1.689 L 260.254 0.149 L 259.845 -0.155 C 259.029 0.941 257.868 1.357 256.362 1.091 L 253.966 17.172 L 254.784 17.781 L 254.07 17.886 L 253.267 22.399 C 252.413 21.547 251.928 19.91 251.811 17.488 C 248.597 15.096 247.764 11.073 249.313 5.419 L 253.314 7.749 L 252.699 8.575 C 251.33 7.556 250.442 7.319 250.036 7.864 C 249.406 12.507 250.099 15.578 252.115 17.079 L 255.536 0.476 L 251.846 -2.27 L 244.438 -10.34 L 243.725 -10.235 L 241.892 -7.772 L 241.074 -8.381 L 240.447 -10.119 L 226.246 -2.178 L 226.655 -1.873 C 228.329 -0.627 231.432 -1.085 235.966 -3.245 L 233.808 -5.487 C 234.176 -5.903 236.123 -5.946 239.65 -5.614 L 243.022 -7.566 L 242.91 -8.286 L 243.829 -9.521 C 243.634 -7.539 245.042 -5.428 248.052 -3.187 L 252.464 -0.538 C 251.19 1.173 251.201 3.732 252.496 7.139 L 252.086 6.835 C 249.792 5.127 249.544 2.603 251.341 -0.738 L 244.975 -4.193 L 242.823 -6.444 C 240.512 -3.909 238.124 -3.559 235.658 -5.394 L 235.348 -4.977 L 238.22 -2.839 L 237.915 -2.43 C 232.671 0.473 228.303 0.625 224.811 -1.975 C 223.449 -1.285 222.22 -1.347 221.124 -2.163 L 230.432 -6.093 L 240.343 -10.833 L 241.053 -13.495 L 239.818 -14.415 C 239.272 -14.821 238.695 -14.615 238.086 -13.797 L 237.376 -11.134 L 237.071 -10.725 L 236.662 -11.03 L 238.379 -16.77 L 238.788 -16.465 C 239.815 -15.701 245.541 -18.246 255.965 -24.099 Z M 255.968 -21.541 L 257.609 -22.875 L 258.018 -22.571 L 257.105 -21.343 L 255.472 -20.003 L 255.055 -20.314 L 255.968 -21.541 Z M 262.439 -17.373 L 263.048 -18.191 L 263.465 -17.88 L 262.856 -17.062 L 262.439 -17.373 Z M 243.095 -14.531 L 243.4 -14.94 L 244.218 -14.331 L 243.914 -13.922 L 243.095 -14.531 Z M 243.925 -11.358 L 241.462 -13.191 C 241.092 -11.555 241.131 -10.462 241.578 -9.913 L 242.396 -9.304 L 243.925 -11.358 Z M 260.779 3.732 L 261.188 4.036 C 259.867 9.809 258.682 13.399 257.635 14.805 L 255.193 18.086 L 254.784 17.781 C 257.61 13.984 259.064 9.748 259.146 5.071 L 258.425 5.17 L 257.606 4.561 C 259.091 3.705 260.149 3.428 260.779 3.732 Z M 235.417 -14.499 L 235.827 -14.195 L 236.253 -11.334 L 235.836 -11.645 L 235.731 -12.358 L 235.322 -12.663 C 231.115 -11.008 227.61 -8.298 224.807 -4.533 L 224.39 -4.843 L 225.51 -7.201 C 228.214 -9.975 231.517 -12.408 235.417 -14.499 Z M 252.873 -0.234 L 253.178 -0.643 L 254.004 -0.028 L 253.699 0.381 L 252.873 -0.234 Z M 236.456 -9.899 L 237.071 -10.725 L 237.48 -10.421 L 236.865 -9.594 L 236.456 -9.899 ZM 294.84 -3.135 L 295.187 -2.762 L 293.218 0.465 L 291.725 0.461 L 277.3 12.483 L 276.154 14.261 L 275.78 14.608 L 275.426 14.228 C 276.503 12.879 276.764 11.907 276.21 11.312 C 281.603 8.222 287.813 3.406 294.84 -3.135 Z M 296.13 1.348 L 302.553 6.736 L 305.735 10.154 L 305.354 10.508 L 296.799 2.815 L 295.757 1.695 L 296.13 1.348 Z M 304.981 10.856 L 305.354 10.508 L 306.445 11.679 C 308.755 18.035 307.958 23.031 304.055 26.665 L 301.541 24.728 L 301.187 24.347 L 301.568 23.993 L 303.385 25.197 C 307.162 21.681 307.824 17.04 305.37 11.273 L 304.981 10.856 Z M 301.773 8.158 L 302.147 7.811 L 303.584 9.355 L 303.211 9.703 L 301.773 8.158 Z M 298.913 5.834 L 299.286 5.487 L 300.724 7.031 C 303.749 10.281 303.459 14.572 299.853 19.906 C 296.428 21.236 294.059 22.512 292.747 23.734 C 292.251 23.202 292.779 21.983 294.328 20.076 C 295.109 20.915 296.985 20.362 299.956 18.416 C 302.604 13.62 302.504 9.691 299.656 6.632 L 298.913 5.834 Z M 302.838 10.05 L 303.211 9.703 L 304.26 10.83 L 303.887 11.177 L 302.838 10.05 Z M 303.514 11.525 L 303.887 11.177 L 304.623 11.968 L 304.25 12.315 L 303.514 11.525 Z M 304.25 12.315 L 304.604 12.696 C 305.686 16.871 304.558 20.513 301.22 23.62 L 300.492 23.601 L 300.84 23.974 C 295.294 27.214 289.803 25.914 284.366 20.073 C 283.715 21.38 284.176 22.878 285.747 24.566 C 287.81 26.782 290.822 28.231 294.783 28.916 L 296.309 26.798 L 296.726 26.41 L 297.421 27.156 L 296.657 27.171 L 295.097 30.016 L 289.251 29.079 L 288.764 32.415 L 288.391 32.762 L 286.58 31.566 L 287.3 31.591 L 288.209 27.959 L 286.036 26.388 L 285.619 26.776 C 285.45 28.855 285.039 30.199 284.385 30.808 L 286.232 31.192 L 286.206 31.913 L 288.346 34.211 L 286.768 36.377 L 286.073 35.63 L 285.7 35.978 C 286.395 36.724 286.352 37.461 285.571 38.188 L 283.063 46.207 L 282.715 45.833 C 282.164 44.361 283.035 41.191 285.327 36.325 L 283.908 34.053 C 284.406 33.589 285.018 33.748 285.745 34.529 L 286.473 34.548 L 287.219 33.853 L 285.434 31.935 L 284.713 31.909 L 284.366 31.536 C 282.56 35.485 281.414 39.612 280.93 43.916 L 280.576 43.535 C 280.689 37.199 281.714 32.693 283.649 30.017 L 283.295 29.637 L 280.276 31.75 C 278.699 37.071 278.789 41.737 280.546 45.749 L 280.173 46.096 L 279.437 45.306 C 277.944 42.205 277.743 37.669 278.834 31.699 L 283.372 28.868 C 284.182 28.114 284.252 26.154 283.582 22.989 L 282.03 24.433 C 280.659 25.71 280.237 27.037 280.763 28.414 L 281.158 28.839 C 281.939 28.112 282.561 27.997 283.024 28.495 L 282.6 28.89 C 280.265 29.953 278.895 30.267 278.49 29.833 C 279.172 26.867 279.996 24.934 280.962 24.034 L 282.089 22.985 L 282.854 22.97 L 283.235 22.616 C 283.54 19.881 283.359 18.155 282.691 17.438 L 282.274 17.826 L 279.17 22.109 L 278.449 22.084 L 278.076 22.431 L 276.879 24.242 L 276.499 24.596 L 272.448 24.091 L 272.821 23.743 L 276.557 23.148 C 280.989 18.203 282.814 15.31 282.033 14.471 L 283.475 14.523 L 289.712 5.915 L 290.092 5.561 L 290.44 5.934 L 283.818 16.389 L 284.494 17.863 C 286.27 16.21 287.869 16.147 289.291 17.674 C 290.486 18.957 291.682 19.738 292.88 20.017 L 292.004 22.936 L 291.656 22.563 L 291.752 21.066 C 288.297 18.108 286.118 17.049 285.215 17.889 L 285.189 18.61 L 287.676 21.281 C 292.992 25.368 297.524 25.667 301.272 22.178 C 303.394 20.202 304.387 16.915 304.25 12.315 Z M 292.047 1.555 L 292.838 0.82 L 293.185 1.193 L 292.395 1.929 L 292.047 1.555 Z M 289.826 2.926 L 291.7 1.182 L 292.047 1.555 L 290.173 3.3 L 289.826 2.926 Z M 290.894 3.326 L 292.014 2.283 L 292.409 2.708 L 291.289 3.75 L 290.894 3.326 Z M 289.745 5.188 L 291.289 3.75 L 291.637 4.123 L 290.092 5.561 L 289.745 5.188 Z M 286.331 6.877 L 289.376 4.042 L 289.723 4.416 L 286.678 7.25 L 286.331 6.877 Z M 272.954 20.026 L 286.678 7.25 L 287.073 7.675 L 277.115 17.642 L 271.026 23.311 L 264.215 28.954 C 267.383 29.794 270.231 29.037 272.759 26.684 L 273.139 26.33 L 271 24.032 L 271.727 24.065 L 272.101 23.717 L 272.075 24.438 L 272.422 24.811 L 275.308 26.415 L 274.935 26.762 C 271.373 30.078 267.548 31.043 263.461 29.656 L 261.522 30.669 L 260.132 29.176 L 272.574 20.38 L 271.531 19.261 L 272.98 19.305 L 272.954 20.026 Z M 300.093 24.669 L 300.466 24.322 L 301.168 25.076 L 302.928 27.714 L 297.315 30.138 L 296.967 29.765 L 296.971 28.272 C 297.934 29.307 299.306 28.995 301.087 27.337 L 300.093 24.669 Z M 272.437 14.128 L 275.108 11.641 L 275.4 14.963 L 276.128 14.981 L 274.924 16.799 L 274.281 14.597 L 273.154 15.646 L 272.658 18.211 L 272.311 17.838 L 272.437 14.128 Z M 267.924 17.631 L 270.969 14.797 L 272.285 18.559 L 271.912 18.906 L 270.474 17.362 L 267.075 19.816 L 263.221 24.893 L 262.848 25.24 L 262.46 24.823 C 264.166 21.832 265.987 19.435 267.924 17.631 Z M 280.9 46.129 L 280.93 43.916 L 281.319 44.333 L 281.248 46.502 L 280.9 46.129 Z M 283.033 48.42 L 283.063 46.207 L 283.41 46.58 L 283.381 48.793 L 283.033 48.42 Z M 262.475 25.588 L 262.848 25.24 L 262.803 26.689 L 262.43 27.036 L 262.475 25.588 Z M 280.173 46.096 L 281.943 47.249 C 281.44 47.717 280.842 47.578 280.147 46.831 L 279.792 46.45 L 280.173 46.096 Z M 283.007 49.141 L 283.381 48.793 L 284.083 49.547 L 283.709 49.895 L 283.007 49.141 Z M 280.816 48.298 L 281.57 47.597 L 282.66 48.768 L 281.163 48.672 L 280.816 48.298 Z M 282.279 49.122 L 284.404 50.641 L 285.461 52.54 L 285.088 52.888 L 281.906 49.469 L 282.279 49.122 ZM 346.015 65.193 L 346.996 64.593 L 347.298 65.088 L 346.317 65.688 L 346.015 65.193 Z M 332.433 47.393 L 335.157 46.327 L 335.459 46.822 L 333.496 48.021 L 331.947 47.69 L 332.433 47.393 Z M 346.119 66.477 L 346.422 66.971 L 345.927 67.274 L 344.157 67.676 L 343.859 67.189 L 345.327 66.293 L 346.119 66.477 Z M 344.945 67.873 L 345.545 68.855 L 343.469 68.775 C 338.011 73.907 333.37 77.641 329.547 79.976 L 327.813 83.66 L 327.327 83.958 L 328.452 79.297 L 329.434 78.698 L 344.157 67.676 L 344.945 67.873 Z M 331.149 47.498 L 331.644 47.195 L 331.947 47.69 L 330.301 49.293 L 328.825 50.195 L 328.559 49.76 L 331.149 47.498 Z M 331.822 49.712 L 332.812 49.107 L 333.115 49.602 L 332.125 50.207 L 331.822 49.712 Z M 341.481 66.615 L 342.463 66.015 L 342.765 66.51 L 341.784 67.11 L 341.481 66.615 Z M 343.285 69.567 L 344.266 68.968 L 344.866 69.949 L 343.285 69.567 Z M 329.727 51.672 L 332.125 50.207 L 331.115 52.851 L 329.727 51.672 Z M 325.389 49.002 L 329.871 47.611 L 330.168 48.097 L 328.743 48.968 L 325.199 49.785 L 324.902 49.299 L 325.389 49.002 Z M 336.92 70.081 L 340.744 66.386 L 341.646 67.862 L 340.169 68.764 L 331.674 74.634 C 321.917 80.595 316.248 82.281 314.667 79.692 L 314.37 79.206 L 313.883 79.503 L 315.348 81.901 C 312.287 83.771 308.358 82.824 303.558 79.061 C 302.466 79.728 301.157 79.427 299.631 78.156 L 300.126 77.854 L 316.058 75.467 L 315.761 74.981 L 315.249 71.919 C 312.404 71.852 308.908 73.086 304.761 75.62 L 304.495 75.184 L 308.915 72.484 L 312.569 70.849 L 310.801 67.956 C 307.451 70.004 305.183 72.514 304 75.487 L 303.565 75.753 C 304.545 71.552 306.984 68.261 310.881 65.881 L 310.688 66.678 L 311.59 68.154 L 313.55 70.25 L 313.358 71.047 L 324.322 60.376 L 324.808 60.079 L 325.106 60.565 L 315.631 70.338 L 316.415 70.527 L 316.717 71.022 L 316.448 73.881 L 317.237 74.079 L 316.256 74.679 L 316.855 75.66 C 325.733 73.338 331.466 71.386 334.055 69.804 L 334.352 70.291 L 332.441 71.459 C 324.317 74.773 315.382 77.334 305.634 79.14 L 306.234 80.122 C 307.103 81.544 309.677 81.749 313.956 80.736 L 312.486 78.329 L 317.449 79.95 C 323.039 77.886 328.4 75.286 333.532 72.151 L 336.92 70.081 Z M 342.157 70.924 L 343.147 70.32 L 343.449 70.815 L 342.46 71.419 L 342.157 70.924 Z M 342.573 72.698 L 343.554 72.098 L 343.856 72.593 L 342.875 73.193 L 342.573 72.698 Z M 341.973 71.717 L 342.46 71.419 L 342.757 71.906 L 341.096 73.6 L 340.601 73.902 L 340.299 73.407 L 341.973 71.717 Z M 337.494 67.703 L 338.97 66.801 L 339.267 67.288 L 337.791 68.19 L 337.494 67.703 Z M 342.38 73.495 L 342.875 73.193 L 342.457 74.714 L 341.962 75.016 L 342.38 73.495 Z M 327.077 53.97 L 329.534 52.469 L 329.831 52.955 L 327.374 54.457 L 327.077 53.97 Z M 324.818 51.366 L 327.275 49.865 L 327.578 50.36 L 325.12 51.861 L 324.818 51.366 Z M 328.657 54.352 L 329.647 53.747 L 329.945 54.234 L 328.955 54.839 L 328.657 54.352 Z M 329.257 55.333 L 330.247 54.729 L 330.549 55.224 L 329.559 55.828 L 329.257 55.333 Z M 337.192 67.208 L 337.494 67.703 L 336.999 68.006 L 323.875 70.692 L 320.789 73.257 L 320.487 72.762 L 320.077 70.997 L 319.59 71.294 L 317.812 71.701 L 317.43 73.282 L 316.935 73.584 L 317.707 70.417 L 318.491 70.606 L 319.967 69.704 L 327.998 58.798 C 325.468 64.797 323.364 68.309 321.686 69.334 L 322.483 69.527 L 322.78 70.013 L 321.171 71.676 L 321.468 72.162 L 321.963 71.86 L 324.257 69.111 C 331.532 68.666 335.843 68.032 337.192 67.208 Z M 329.343 92.781 L 341.962 75.016 C 336.551 86.377 332.48 92.891 329.75 94.559 L 329.263 94.857 L 324.405 94.52 L 324.213 95.317 L 323.311 93.841 L 329.343 92.781 Z M 310.669 60.01 L 327.156 51.894 L 327.453 52.381 L 324.996 53.882 C 312.002 61.821 304.817 64.663 303.441 62.411 L 302.539 60.934 L 302.044 61.237 L 303.842 64.181 C 300.167 66.426 295.875 65.251 290.967 60.657 C 289.983 61.258 288.99 60.739 287.989 59.101 L 288.484 58.798 C 306.461 57.214 318.308 54.675 324.025 51.182 L 324.323 51.668 L 322.846 52.57 C 314.987 55.575 307.651 57.807 300.839 59.266 L 301.142 59.76 C 303.818 62.172 306.994 62.255 310.669 60.01 Z M 334.352 70.291 L 337.296 68.492 L 337.599 68.987 L 334.655 70.786 L 334.352 70.291 Z M 340.115 74.199 L 340.601 73.902 L 340.904 74.397 C 334.605 82.245 326.566 90.282 316.786 98.507 L 317.083 98.993 C 319.196 99.906 321.634 99.517 324.399 97.828 C 325.383 97.227 325.486 96.289 324.707 95.015 L 325.194 94.718 L 327.891 97.042 L 327.456 97.308 L 325.301 99.304 C 322.496 101.018 319.166 101.053 315.31 99.409 L 313.045 100.113 L 312.143 98.636 L 312.638 98.334 C 321.08 93.176 324.902 89.943 324.102 88.635 L 324.597 88.332 L 325.197 89.313 C 330.273 84.861 335.246 79.823 340.115 74.199 Z M 324.6 48.804 L 324.902 49.299 L 324.407 49.601 C 316.325 50.937 311.3 52.207 309.332 53.409 L 309.029 52.914 L 312.12 50.358 C 316.306 50.496 320.466 49.978 324.6 48.804 Z M 327.487 55.735 L 328.468 55.136 L 328.771 55.631 L 327.789 56.23 L 327.487 55.735 Z M 328.389 57.212 L 329.37 56.612 L 329.673 57.107 L 328.691 57.706 L 328.389 57.212 Z M 325.897 55.359 L 327.374 54.457 L 327.676 54.952 C 319.394 61.113 315.508 64.612 316.019 65.448 L 315.524 65.751 C 314.634 64.294 318.092 60.83 325.897 55.359 Z M 326.799 56.835 L 327.789 56.23 L 328.092 56.725 L 327.102 57.33 L 326.799 56.835 Z M 327.701 58.311 L 328.691 57.706 L 328.988 58.193 L 327.998 58.798 L 327.701 58.311 Z M 325.634 58.227 L 326.615 57.627 L 326.913 58.113 L 325.931 58.713 L 325.634 58.227 Z M 324.506 59.584 L 325.931 58.713 L 326.234 59.208 L 324.808 60.079 L 324.506 59.584 Z M 307.078 50.814 L 309.906 51.031 L 308.048 53.514 L 308.246 52.725 L 307.943 52.23 L 307.183 52.097 L 304.609 55.615 C 305.089 53.127 305.912 51.526 307.078 50.814 Z M 326.541 80.465 L 326.843 80.96 L 326.535 83.773 L 325.967 82.843 L 324.49 83.745 L 324.979 86.751 L 324.493 87.048 L 323.591 85.572 C 323.799 83.547 324.782 81.844 326.541 80.465 Z M 308.845 53.706 L 309.142 54.193 L 307.666 55.095 L 308.048 53.514 L 308.845 53.706 Z M 312.843 64.682 L 314.815 63.477 L 315.222 65.256 L 314.438 65.067 L 313.448 65.671 C 312.794 66.071 312.766 66.76 313.364 67.739 L 312.877 68.036 L 311.98 66.568 L 312.843 64.682 Z M 326.048 84.071 L 327.629 84.452 L 327.437 85.25 L 326.95 85.547 L 326.048 84.071 Z M 314.24 65.855 L 315.821 66.237 L 314.95 68.129 L 314.647 67.634 L 314.24 65.855 Z M 304.502 51.028 C 304.893 52.64 304.665 54.108 303.817 55.431 L 303.514 54.936 L 302.842 52.722 C 299.726 53.274 297.15 54.172 295.113 55.417 L 294.132 56.016 L 292.028 57.981 L 292.551 55.634 L 295.495 53.836 C 298.299 52.122 301.302 51.186 304.502 51.028 Z M 312.382 68.338 L 312.877 68.036 L 313.482 69.026 L 312.987 69.328 L 312.382 68.338 Z M 322.423 83.661 L 323.695 86.856 L 325.092 88.03 C 324.432 88.433 323.513 87.67 322.335 85.742 C 317.858 88.477 315.181 92.113 314.303 96.648 L 314.001 96.154 C 313.898 91.318 316.706 87.154 322.423 83.661 Z M 303.33 55.728 L 304.911 56.11 L 303.93 56.709 L 303.33 55.728 Z M 301.846 62.026 L 300.047 59.081 L 293.043 60.736 L 293.308 61.171 C 296.471 63.739 299.255 64.288 301.662 62.818 L 301.846 62.026 ZM 364.315 100.354 L 365.05 102.268 L 363.612 102.82 L 363.795 103.296 L 365.233 102.744 L 366.151 105.133 L 365.666 105.32 L 365.007 105.027 L 364.531 105.21 L 364.824 104.551 L 364.454 103.589 L 361.699 103.556 L 361.882 104.032 L 362.541 104.325 L 362.251 104.993 L 362.434 105.469 L 367.362 113.999 L 367.545 114.475 L 367.069 114.658 C 364.263 111.166 361.875 107.33 359.905 103.152 C 358.995 104.595 358.724 105.795 359.093 106.753 C 360.025 109.18 362.082 111.679 365.262 114.249 L 365.449 114.734 C 364.49 115.103 362.296 113.203 358.867 109.036 L 349.9 111.379 L 351.188 114.73 L 355.189 113.739 L 359.598 110.941 L 360.084 110.754 L 360.27 111.239 C 358.564 112.988 356.675 114.26 354.602 115.057 L 352.213 115.975 C 350.62 116.587 349.701 116.576 349.457 115.941 L 349.794 112.523 L 349.122 112.224 L 349.424 111.562 L 348.756 111.272 L 337.769 115.495 L 328.394 119.644 L 327.432 120.014 L 327.249 119.537 L 342.658 112.523 L 357.838 107.782 L 358.65 104.181 L 358.174 104.364 L 357.579 105.685 C 355.377 105.067 353.701 104.979 352.549 105.422 L 351.588 105.791 L 352.693 108.666 L 351.371 108.071 L 351.664 107.412 L 351.188 107.595 L 351.371 108.071 L 347.285 107.445 C 342.63 109.234 336.467 112.702 328.797 117.85 L 329.086 117.182 C 327.631 115.048 325.379 112.989 322.331 111.004 L 322.148 110.528 C 323.823 110.613 326.395 112.549 329.865 116.336 L 330.341 116.153 C 336.967 110.685 342.692 107.025 347.515 105.171 L 351.005 107.119 L 350.822 106.643 L 348.943 104.623 C 352.696 103.909 355.233 103.848 356.554 104.44 C 355.726 102.287 355.911 100.388 357.107 98.743 L 357.583 98.56 L 357.329 103.585 L 358.281 103.219 L 359.535 102.191 L 358.986 100.763 L 358.544 98.19 L 357.583 98.56 L 357.396 98.074 C 358.355 97.706 358.467 96.567 357.732 94.656 L 358.026 93.997 L 358.987 93.628 L 359.786 97.156 C 362.133 97.539 363.643 98.605 364.315 100.354 Z M 370.258 117.268 L 370.743 117.081 L 371.113 118.043 L 370.627 118.229 L 370.258 117.268 Z M 360.155 98.117 L 359.679 98.3 L 361.516 103.079 L 363.723 101.685 C 362.788 99.252 361.598 98.063 360.155 98.117 Z M 364.055 105.393 L 365.849 105.796 L 367.027 110.282 L 370.075 116.792 L 370.258 117.268 L 369.782 117.451 L 368.464 116.865 L 369.046 115.537 L 367.286 112.379 L 365.083 106.647 L 362.727 104.81 L 364.165 104.258 L 363.872 104.917 L 364.055 105.393 Z M 367.545 114.475 L 368.021 114.292 L 368.57 115.72 L 368.094 115.903 L 367.545 114.475 Z M 365.449 114.734 L 365.925 114.551 L 366.291 115.504 L 365.815 115.686 L 365.449 114.734 Z M 348.832 112.893 L 349.308 112.71 C 348.851 115.442 348.324 116.923 347.727 117.153 L 345.154 117.595 L 346.332 114.946 L 346.698 115.898 L 347.174 115.715 L 348.832 112.893 Z M 345.197 114.836 L 345.673 114.653 L 345.856 115.129 L 342.582 118.037 L 332.288 119.797 C 332.654 120.749 332.519 121.347 331.885 121.591 L 331.408 121.774 C 330.921 120.505 330.039 120.115 328.763 120.605 L 331.701 128.25 L 332.879 125.601 L 332.144 123.688 L 330.706 124.24 L 330.523 123.764 L 330.817 123.105 L 330.634 122.629 L 333.206 122.187 C 334.278 124.975 333.898 127.313 332.067 129.202 C 332.557 130.478 332.287 131.679 331.255 132.804 L 330.779 132.986 L 330.596 132.51 L 330.447 129.279 C 328.853 129.891 327.127 128.726 325.268 125.784 L 324.716 124.346 L 326.816 124.096 L 327.292 123.913 L 327.105 123.428 C 325.83 123.918 324.63 123.651 323.508 122.625 L 322.07 123.178 L 321.884 122.692 C 323.477 122.08 324.151 121.456 323.907 120.822 L 322.224 112.148 L 321.922 112.811 L 321.446 112.994 L 320.344 110.128 L 321.306 109.759 L 321.003 110.421 L 327.845 118.216 L 328.321 118.033 L 328.504 118.509 L 326.59 119.244 L 323.249 113.394 L 322.773 113.577 L 325.043 120.932 L 343.467 116.047 L 345.197 114.836 Z M 328.168 121.927 L 326.85 121.341 L 325.412 121.893 L 325.595 122.369 L 328.72 123.365 L 328.168 121.927 Z M 330.264 128.803 L 328.903 123.841 L 326.513 124.759 L 327.062 126.187 C 327.722 127.905 328.789 128.777 330.264 128.803 ZM 374.155 134.97 L 375.649 134.643 L 375.76 135.151 L 374.266 135.478 L 374.155 134.97 Z M 379.241 160.596 L 380.735 160.268 L 380.844 160.767 L 379.35 161.094 L 379.241 160.596 Z M 373.656 135.079 L 373.768 135.587 L 372.979 136.804 L 372.372 136.415 L 372.481 136.913 C 371.372 136.241 364.687 136.831 352.426 138.682 L 350.532 139.618 L 352.208 137.685 C 358.306 137.395 365.456 136.526 373.656 135.079 Z M 372.092 137.52 L 372.59 137.411 L 371.026 139.852 L 370.419 139.463 L 370.31 138.965 L 372.092 137.52 Z M 374.846 162.079 L 377.845 161.423 L 377.456 162.03 L 377.565 162.528 L 374.955 162.578 L 374.846 162.079 Z M 369.871 136.962 L 371.485 137.131 L 371.594 137.629 L 371.086 137.741 L 366.981 138.117 L 366.872 137.619 L 369.871 136.962 Z M 376.629 160.635 L 376.74 161.143 L 371.738 162.237 L 356.902 163.908 C 356.31 165.785 355.493 166.837 354.451 167.065 L 354.56 167.563 L 369.057 164.391 L 369.166 164.889 L 353.164 168.391 L 352.777 169.008 L 352.886 169.506 L 349.667 169.156 C 349.814 169.827 350.385 170.053 351.382 169.835 L 351.491 170.333 C 351.636 170.998 351.211 171.439 350.214 171.657 C 350.361 172.328 350.933 172.554 351.929 172.336 C 355.387 171.579 362.173 169.047 372.286 164.738 L 373.282 164.52 L 373.391 165.018 C 363.813 169.558 356.732 172.329 352.147 173.332 L 350.653 173.659 L 348.93 172.992 L 348.432 173.101 L 349.039 173.491 L 349.148 173.989 L 342.751 175.911 L 339.425 175.072 L 338.647 176.287 L 337.641 176.507 L 336.426 175.729 L 336.317 175.231 C 337.984 174.866 338.635 173.85 338.271 172.183 L 338.769 172.073 L 338.987 173.07 L 339.485 172.961 L 349.182 164.553 L 347.019 161.874 C 341.422 166.641 338.838 170.004 339.267 171.964 L 338.769 172.073 L 338.549 171.067 C 339.935 166.833 342.912 162.861 347.478 159.153 C 347.917 161.159 348.468 162.089 349.133 161.944 C 348.476 158.941 349.147 157.221 351.146 156.784 L 351.535 156.177 L 351.644 156.675 L 351.693 159.285 L 352.301 159.674 L 351.912 160.281 L 351.413 160.39 L 350.975 158.387 L 350.477 158.496 C 349.559 158.697 349.256 160.511 349.569 163.936 C 352.443 161.697 356.157 157.915 360.711 152.592 L 361.209 152.483 C 354.69 160.987 348.319 167.796 342.095 172.912 L 340.93 174.743 L 343.539 174.694 C 346.079 174.138 348.195 172.628 349.887 170.162 L 348.661 169.376 L 349.05 168.769 L 348.552 168.878 L 348.163 169.485 L 347.555 169.096 L 347.446 168.598 L 349.947 168.051 L 352.059 168.111 C 354.307 166.22 359.529 158.962 367.726 146.338 L 367.835 146.836 L 358.687 162.473 C 364.976 162.489 370.956 161.876 376.629 160.635 Z M 375.064 163.076 L 376.061 162.858 L 376.17 163.356 L 375.173 163.574 L 375.064 163.076 Z M 368.585 138.288 L 370.089 137.959 L 370.199 138.457 L 368.694 138.786 L 368.585 138.288 Z M 369.023 140.29 L 370.03 140.07 L 370.248 141.067 L 369.023 140.29 Z M 373.171 164.012 L 374.675 163.683 L 374.786 164.191 L 373.282 164.52 L 373.171 164.012 Z M 366.701 139.222 L 368.694 138.786 L 368.805 139.294 L 366.812 139.73 L 366.701 139.222 Z M 368.948 163.892 L 373.949 162.798 L 374.058 163.296 L 369.057 164.391 L 368.948 163.892 Z M 367.747 141.614 L 368.743 141.396 L 368.854 141.904 L 367.858 142.122 L 367.747 141.614 Z M 367.36 142.231 L 367.858 142.122 L 367.07 143.339 L 366.572 143.448 L 367.36 142.231 Z M 365.477 138.446 L 366.483 138.226 L 366.592 138.724 L 348.301 143.782 L 333.076 146.059 L 333.185 146.557 C 335.155 148.576 337.58 149.271 340.458 148.641 L 341.953 148.313 L 341.623 146.809 L 342.131 146.698 L 343.895 149.987 C 338.933 151.073 334.828 149.873 331.581 146.386 C 330.578 146.606 330.004 146.383 329.858 145.719 L 329.638 144.713 L 332.528 143.558 L 332.748 144.565 L 333.247 144.456 L 351.079 142.119 L 354.088 141.461 L 365.477 138.446 Z M 365.806 139.95 L 366.812 139.73 L 366.921 140.228 C 357.039 145.182 349.828 148.156 345.289 149.15 L 342.63 146.589 L 343.128 146.48 C 344.559 147.218 345.834 147.464 346.954 147.219 C 350.751 146.388 357.035 143.965 365.806 139.95 Z M 366.403 145.061 L 367.399 144.843 L 367.508 145.341 L 366.512 145.559 L 366.403 145.061 Z M 366.073 143.557 L 366.572 143.448 L 365.793 144.662 L 365.295 144.771 L 366.073 143.557 Z M 365.295 144.771 C 365.46 145.527 364.737 146.21 363.124 146.823 C 362.96 146.074 363.683 145.39 365.295 144.771 Z M 364.449 148.109 L 364.947 148 L 364.169 149.215 L 363.671 149.324 L 364.449 148.109 Z M 363.124 146.823 C 362.681 148.012 359.486 150.983 353.538 155.738 C 353.666 157.102 353.313 157.876 352.479 158.058 L 352.37 157.56 C 351.978 155.769 354.244 153.352 359.167 150.309 C 360.678 148.232 361.997 147.069 363.124 146.823 Z M 362.384 150.649 L 362.883 150.54 L 361.717 152.372 L 361.209 152.483 L 362.384 150.649 Z M 347.992 137.554 L 350.602 137.504 L 349.147 140.443 L 349.756 140.842 L 348.251 141.172 L 348.819 138.949 L 347.315 139.278 L 345.252 141.828 L 344.643 141.429 L 344.754 141.937 L 345.362 142.326 L 344.972 142.933 L 344.474 143.042 L 344.365 142.544 L 344.316 139.934 L 343.709 139.545 L 337.203 140.969 L 332.917 142.951 C 332.607 141.531 335.928 139.931 342.881 138.15 L 345.382 137.603 L 345.032 140.822 L 345.53 140.713 L 346.488 137.883 L 347.992 137.554 Z M 349.536 139.836 L 350.532 139.618 L 350.641 140.116 L 349.645 140.334 L 349.536 139.836 Z M 351.971 158.169 L 352.479 158.058 L 352.7 159.064 L 352.192 159.176 L 351.971 158.169 Z M 340.798 145.423 L 342.022 146.2 L 341.016 146.42 L 340.798 145.423 ZM 383.403 196.322 L 384.538 200.905 L 382.527 202.496 L 382.986 200.434 L 381.889 197.391 L 383.403 196.322 Z M 384.577 202.445 L 384.59 202.955 C 384.713 207.86 381.933 212.711 376.252 217.508 C 376.269 218.188 375.424 218.549 373.718 218.592 C 373.701 217.912 374.202 217.56 375.222 217.534 L 375.719 217.001 L 375.706 216.491 L 374.648 214.988 L 375.982 206.752 L 378.541 206.687 L 378.528 206.178 L 375.956 205.732 L 375.931 204.712 C 375.739 197.035 371.855 192.01 364.28 189.639 L 358.638 189.261 L 358.626 188.751 L 359.645 188.725 L 359.632 188.215 C 370.927 189.173 376.699 194.663 376.951 204.687 L 380.058 206.139 L 380.007 204.09 C 379.805 196.032 375.407 190.851 366.813 188.546 L 364.764 188.597 L 364.751 188.087 L 366.29 188.048 C 371.282 187.923 375.973 191.22 380.363 197.939 C 380.328 196.573 380.654 195.881 381.341 195.864 C 378.155 189.802 373.299 186.852 366.775 187.016 L 363.209 187.616 L 362.179 187.641 L 362.166 187.132 L 367.271 186.483 L 369.321 186.432 C 374.992 186.29 379.335 189.255 382.348 195.328 C 381.593 197.395 380.935 198.435 380.375 198.449 L 381.546 204.051 C 381.284 207.179 380.504 210.103 379.205 212.823 L 379.715 212.81 C 382.384 210.222 383.682 207.459 383.609 204.52 L 383.595 204 L 382.056 204.038 C 382.037 203.272 382.877 202.741 384.577 202.445 Z M 379.574 207.182 L 378.034 207.22 C 377.355 207.237 376.735 209.64 376.174 214.429 L 376.188 214.949 L 377.207 214.923 C 378.819 211.122 379.608 208.541 379.574 207.182 Z M 369.78 184.38 L 370.299 184.367 L 370.325 185.387 L 367.246 185.464 L 367.233 184.954 L 369.78 184.38 Z M 360.024 183.084 L 368.237 183.898 L 368.25 184.418 C 357.287 184.693 350.688 187.076 348.453 191.567 C 345.465 195.016 344.032 199.15 344.152 203.968 L 344.79 209.074 L 345.298 208.551 L 345.82 209.048 L 350.939 208.92 L 354.697 215.998 L 352.725 219.118 L 355.335 221.103 L 355.855 221.09 L 355.194 215.475 L 358.719 212.826 L 358.732 213.336 C 358.757 214.355 358.087 214.882 356.721 214.917 L 356.862 220.555 L 358.542 226.145 L 359.052 226.132 L 358.478 223.585 L 358.376 219.487 L 360.223 211.758 L 359.713 211.771 L 359.216 212.293 L 359.19 211.274 L 360.21 211.248 L 360.107 207.149 L 359.087 207.175 L 359.584 206.652 L 359.572 206.143 L 357.978 203.622 L 357.965 203.112 L 358.985 203.086 C 359.585 203.071 360.463 204.073 361.621 206.091 L 362.131 206.078 L 361.634 206.601 L 361.647 207.111 L 362.208 209.147 L 361.291 213.272 L 363.85 213.208 L 363.773 210.138 C 363.744 208.986 363.201 207.802 362.144 206.588 L 362.653 206.575 C 364.736 207.717 365.801 209.227 365.848 211.107 L 365.861 211.617 L 365.405 214.189 L 364.882 213.692 L 364.373 213.705 L 362.336 214.266 L 360.794 213.794 L 360.807 214.304 L 359.408 219.971 L 359.498 223.56 L 360.633 228.143 L 361.153 228.13 L 360.569 225.584 L 360.53 224.044 C 360.95 220.279 361.586 218.386 362.439 218.365 L 361.355 215.831 L 363.404 215.78 L 363.392 215.27 L 362.859 214.763 L 362.846 214.253 L 363.366 214.24 L 364.908 214.711 L 363.952 217.296 L 363.43 216.799 L 362.91 216.812 L 362.923 217.322 L 363.456 217.829 L 361.063 224.541 L 361.65 227.597 L 361.663 228.117 L 360.659 229.162 C 359.506 228.938 357.913 226.587 355.881 222.11 C 354.514 222.144 352.614 221.338 350.178 219.692 C 346.513 219.784 343.571 218.151 341.353 214.792 L 342.764 209.635 L 343.274 209.622 L 343.3 210.652 L 342.867 213.733 C 344.223 216.774 345.968 218.267 348.101 218.214 L 349.12 218.188 C 346.183 215.141 344.23 212.115 343.261 209.112 L 342.751 209.125 L 340.256 211.748 L 339.736 211.761 L 338.55 205.129 L 338.447 201.04 C 338.393 198.861 338.863 197.142 339.858 195.883 L 342.443 196.839 L 342.456 197.349 C 340.75 197.391 339.918 198.266 339.961 199.972 L 339.544 204.084 L 340.715 209.686 L 341.224 209.673 L 343.248 208.602 L 342.116 204.529 L 343.489 197.843 L 342.469 197.868 L 343.463 196.813 L 343.985 197.31 C 343.884 193.258 347.877 189.064 355.964 184.726 L 357.503 184.688 L 357.49 184.168 L 355.951 184.206 C 350.659 184.339 345.788 187.535 341.337 193.796 L 342.43 196.329 L 340.33 194.331 C 343.689 187.078 350.254 183.329 360.024 183.084 Z M 363.157 185.566 L 365.207 185.515 L 365.219 186.025 L 363.17 186.076 L 363.157 185.566 Z M 362.089 184.052 L 362.076 183.543 L 358.497 183.632 L 358.51 184.142 L 362.089 184.052 Z M 361.121 186.127 L 362.66 186.089 L 362.673 186.599 L 361.133 186.637 L 361.121 186.127 Z M 360.649 187.68 L 362.179 187.641 L 362.192 188.151 L 360.662 188.19 L 360.649 187.68 Z M 360.114 186.663 L 361.133 186.637 L 361.146 187.157 C 357.987 187.236 353.973 190.578 349.104 197.182 L 349.627 197.689 L 348.735 202.833 L 349.857 206.896 L 345.807 208.538 L 347.78 205.418 L 347.196 202.872 C 347.036 196.514 350.834 191.297 358.587 187.221 L 360.114 186.663 Z M 361.676 228.627 L 362.186 228.614 L 362.224 230.144 L 361.179 229.149 L 361.676 228.627 Z M 358.578 207.188 L 359.087 207.175 C 357.758 208.662 357.109 210.045 357.141 211.325 L 357.154 211.835 L 358.693 211.796 C 358.707 212.349 357.701 213.058 355.675 213.923 L 355.637 212.383 C 355.587 210.384 356.567 208.652 358.578 207.188 Z M 345.323 209.571 C 346.253 212.622 348.372 215.473 351.679 218.124 L 352.635 215.539 C 351.173 211.475 348.735 209.485 345.323 209.571 Z" transform="matrix(0.6156100034713745, -0.7885869741439819, 0.7880510091781616, 0.6160280108451843, -16.598554611206055, 136.2604217529297)" style="fill: rgb(9, 88, 105); text-transform: uppercase; white-space: pre;"/>
  <path d="M 100.211 -35.9 C 229.152 -35.9 338.224 76.367 338.68 212.744" id="path-0" style="fill: none;"/>
  <path d="M -31.993 -19.592 C 96.948 -19.592 206.02 92.674 206.476 229.051" id="path-1" style="fill: none;"/>
  <path d="M 15.487 -51.87 L 17.988 -62.325 L 18.484 -62.207 L 18.506 -60.104 L 17.174 -56.731 L 15.269 -48.766 L 12.509 -39.422 L 12.786 -36.199 C 12.248 -36.327 11.822 -37.481 11.507 -39.661 L 15.487 -51.87 Z M 29.079 -58.099 L 29.198 -58.595 L 30.696 -58.236 L 34.564 -56.786 L 34.446 -56.29 L 32.948 -56.649 L 29.079 -58.099 Z M 23.485 -58.913 L 26.589 -58.694 L 31.329 -56.501 L 31.211 -56.005 L 30.715 -56.124 L 23.364 -58.407 L 23.485 -58.913 Z M 34.325 -55.785 L 34.446 -56.29 L 34.942 -56.172 C 40.975 -52.048 43.341 -47.27 42.041 -41.836 L 41.922 -41.34 L 39.312 -41.43 L 38.816 -41.549 L 38.937 -42.055 C 39.929 -41.817 40.504 -42.029 40.662 -42.691 L 40.781 -43.187 C 41.724 -47.129 39.737 -51.288 34.821 -55.666 L 34.325 -55.785 Z M 21.252 -58.388 L 21.37 -58.884 L 22.868 -58.526 L 22.749 -58.03 L 21.252 -58.388 Z M 24.129 -57.175 L 24.247 -57.671 L 26.231 -57.197 C 28.851 -56.57 31.063 -54.814 32.867 -51.928 L 32.371 -52.046 C 30.066 -54.702 27.318 -56.412 24.129 -57.175 Z M 31.092 -55.509 L 31.211 -56.005 L 32.708 -55.647 L 32.59 -55.151 L 31.092 -55.509 Z M 17.433 -55.62 L 18.147 -58.606 L 18.643 -58.487 L 18.553 -55.877 L 17.929 -55.502 L 17.433 -55.62 Z M 32.471 -54.655 L 32.59 -55.151 L 33.582 -54.914 L 33.463 -54.418 L 32.471 -54.655 Z M 33.463 -54.418 L 33.969 -54.297 C 37.655 -50.652 39.017 -46.817 38.054 -42.79 L 37.814 -41.789 L 38.816 -41.549 L 38.578 -40.557 C 37.58 -40.796 36.882 -40.085 36.485 -38.425 C 33.05 -33.983 28.305 -32.486 22.249 -33.935 C 22.001 -32.897 23.793 -31.591 27.625 -30.016 L 27.507 -29.52 L 25.523 -29.995 C 23.195 -30.552 21.479 -32.189 20.374 -34.908 L 19.878 -35.026 L 19.522 -33.538 L 18.827 -28.44 L 15.86 -27.042 L 15.364 -27.161 C 16.393 -28.539 17.256 -29.21 17.954 -29.173 C 19.066 -33.822 18.792 -36.345 17.132 -36.742 L 17.251 -37.238 L 18.599 -38.489 L 18.85 -50.541 L 18.969 -51.037 L 19.465 -50.919 C 19.525 -41.431 19.948 -36.593 20.733 -36.405 L 21.229 -36.287 L 20.851 -36.901 L 21.21 -38.399 C 21.526 -39.722 24.214 -39.956 29.274 -39.102 L 30.791 -36.631 L 31.406 -37.008 L 31.169 -36.016 C 34.224 -37.04 36.267 -39.708 37.299 -44.02 C 37.905 -46.555 36.627 -50.021 33.463 -54.418 Z M 18.195 -54.379 L 18.435 -55.381 L 18.931 -55.262 L 18.691 -54.26 L 18.195 -54.379 Z M 33.43 -45.47 L 32.867 -51.928 C 34.837 -49.873 35.405 -47.105 34.572 -43.623 L 30.91 -37.127 L 30.414 -37.246 L 30.632 -40.35 L 33.074 -43.982 L 33.43 -45.47 Z M 17.094 -52.01 L 17.689 -54.5 L 18.195 -54.379 L 17.599 -51.889 L 17.094 -52.01 Z M 18.335 -52.772 L 18.572 -53.764 L 19.068 -53.646 L 18.831 -52.654 L 18.335 -52.772 Z M 18.473 -51.156 L 18.712 -52.158 L 19.208 -52.039 L 18.969 -51.037 L 18.473 -51.156 Z M 16.766 -48.408 L 17.481 -51.393 L 17.977 -51.275 L 17.262 -48.289 L 16.766 -48.408 Z M 16.904 -46.791 L 17.262 -48.289 L 17.758 -48.17 L 14.223 -29.007 L 12.913 -23.531 L 11.225 -18.671 C 14.181 -19.28 16.067 -21.286 16.881 -24.69 L 17.118 -25.682 L 15.125 -26.159 L 15.246 -26.665 L 18.965 -26.824 L 18.846 -26.328 C 17.675 -21.432 15.055 -18.549 10.988 -17.679 C 10.67 -16.35 10.18 -15.764 9.519 -15.922 L 8.517 -16.162 L 13.47 -30.246 L 10.107 -31.575 L 8.647 -27.709 L 8.479 -20.387 C 7.15 -20.705 7.034 -23.889 8.132 -29.94 L 8.968 -33.431 L 9.464 -33.312 L 12.091 -31.1 L 12.21 -31.596 L 11.832 -32.211 L 12.328 -32.092 L 13.589 -30.742 L 14.78 -35.722 L 16.904 -46.791 Z M 38.46 -40.061 L 38.578 -40.557 L 41.564 -39.843 L 41.206 -38.345 C 39.997 -35.124 38.935 -33.624 38.021 -33.842 L 37.646 -34.467 C 39.044 -35.928 39.937 -37.469 40.325 -39.09 L 38.46 -40.061 Z M 21.972 -37.158 L 21.734 -36.166 L 23.104 -35.314 C 27.911 -34.863 30.434 -35.137 30.673 -36.135 C 29.719 -36.363 29.008 -37.058 28.539 -38.219 C 24.359 -38.341 22.17 -37.988 21.972 -37.158 Z M 35.79 -33.327 L 36.127 -36.928 L 37.764 -34.963 L 36.763 -35.202 L 36.644 -34.706 L 37.05 -31.977 C 34.088 -30.225 31.075 -29.366 28.012 -29.399 L 27.625 -30.016 L 27.863 -31.008 C 30.605 -30.352 33.248 -31.125 35.79 -33.327 Z M 9.324 -34.919 L 10.534 -37.786 L 11.03 -37.667 L 12.668 -35.703 L 13.282 -36.08 L 12.924 -34.582 L 12.428 -34.701 L 11.18 -36.058 L 10.94 -35.057 C 10.703 -34.065 11.08 -33.45 12.072 -33.213 L 11.832 -32.211 L 9.324 -34.919 ZM 65.692 -48.684 L 66.159 -48.479 L 65.246 -43.857 C 64.507 -44.181 61.188 -38.739 55.29 -27.531 L 54.823 -27.736 L 54.59 -23.372 L 53.412 -28.355 C 57.162 -31.791 61.255 -38.568 65.692 -48.684 Z M 65.037 -43.381 L 65.504 -43.176 C 64.167 -30.768 62.668 -22.668 61.005 -18.877 L 60.324 -18.619 L 60.119 -18.152 L 59.772 -16.065 L 59.567 -15.598 C 58.59 -16.027 57.307 -15.658 55.718 -14.491 L 56.194 -14.282 L 59.415 -13.983 L 59.21 -13.516 L 56.825 -10.642 L 57.768 -10.228 L 62.132 -9.996 L 62.609 -9.787 L 63.6 -8.238 L 63.805 -8.705 L 63.28 -10.049 C 64.004 -10.853 65.148 -10.912 66.711 -10.226 L 66.821 -7.939 L 66.616 -7.472 L 65.625 -9.021 L 64.682 -9.435 L 64.13 -6.881 L 61.256 -9.267 C 58.521 -8.974 55.208 -9.495 51.317 -10.831 L 48.243 -12.736 L 47.776 -12.94 L 47.571 -12.473 L 54.658 -8.24 C 56.965 -7.228 60.904 -6.432 66.474 -5.853 L 66.679 -6.32 L 66.411 -7.005 L 67.093 -7.263 L 67.297 -7.73 L 67.382 -10.489 L 72.481 -9.366 C 74.518 -8.385 76.004 -6.245 76.937 -2.945 C 78.675 -1.812 79.406 -0.931 79.13 -0.302 L 78.515 1.099 L 78.048 0.894 L 75.17 -1.482 L 74.966 -1.015 C 74.074 1.018 70.577 1.348 64.475 -0.025 L 64.68 -0.492 L 69.343 -3.481 L 69.138 -3.014 L 67.175 -1.079 L 67.643 -0.874 C 69.944 0.135 72.298 -0.136 74.703 -1.687 L 73.031 -2.977 L 68.613 -4.358 L 68.137 -4.567 C 65.616 -1.574 63.299 -0.541 61.187 -1.467 L 57.441 -3.11 L 50.818 -7.129 C 48.982 -7.192 47.789 -6.598 47.24 -5.346 L 45.83 -5.965 L 46.449 -7.375 L 47.121 -7.637 L 47.325 -8.104 L 46.858 -8.309 L 48.149 -9.982 L 56.908 -4.458 C 61.249 -2.554 64.7 -2.347 67.26 -3.837 L 67.465 -4.304 C 62.698 -4.903 58.292 -5.904 54.248 -7.306 L 46.895 -12.202 L 46.69 -11.735 L 46.596 -8.981 C 46.126 -9.187 45.894 -10.781 45.899 -13.764 L 44.965 -14.174 L 46.513 -15.165 L 49.598 -22.198 L 50.065 -21.993 L 52.467 -19.826 L 52.672 -20.293 C 51.21 -22.056 50.684 -23.404 51.094 -24.338 L 52.589 -26.477 L 53.647 -23.786 L 52.713 -24.195 L 52.299 -23.252 L 53.41 -19.412 L 50.394 -20.179 L 47.243 -14.288 L 47.514 -13.612 L 46.571 -14.026 L 46.366 -13.559 L 48.915 -12.998 L 50.325 -12.379 L 53.468 -18.273 L 52.533 -18.683 L 53.877 -19.208 L 54.139 -18.536 L 54.344 -19.003 L 59.129 -28.643 L 62.161 -36.824 L 63.189 -39.168 L 63.656 -38.963 L 58.991 -27.032 L 55.697 -19.523 L 51.726 -11.765 L 52.67 -11.351 C 54.544 -10.529 55.892 -11.055 56.714 -12.929 L 56.919 -13.396 L 54.784 -14.901 L 58.566 -17.151 C 60.502 -21.565 62.61 -29.773 64.889 -41.775 L 64.422 -41.98 L 63.189 -39.168 L 62.722 -39.373 L 64.365 -43.119 L 65.037 -43.381 Z M 53.7 -22.638 L 53.905 -23.105 L 54.848 -22.691 L 54.643 -22.224 L 53.7 -22.638 Z M 72.605 -7.084 L 68.383 -8.936 L 67.146 -6.115 C 70.489 -5.77 73.351 -5.075 75.732 -4.031 C 75.949 -5.057 74.906 -6.075 72.605 -7.084 Z M 53.436 -14.367 L 54.784 -14.901 L 55.042 -14.22 L 54.837 -13.753 L 53.436 -14.367 Z M 44.693 -14.85 L 44.169 -16.193 L 45.579 -15.575 L 45.169 -14.641 L 44.693 -14.85 ZM 135.142 -9.401 L 135.428 -9.823 L 136.273 -9.251 L 135.986 -8.829 L 135.142 -9.401 Z M 108.011 -25.944 L 108.584 -26.789 L 109.006 -26.503 L 108.433 -25.658 L 108.011 -25.944 Z M 109.428 -26.216 L 109.85 -25.93 C 111.359 -22.073 109.61 -16.452 104.605 -9.069 L 99.562 1.116 L 97.273 2.657 L 96.851 2.371 L 97.137 1.949 L 98.423 0.96 L 109.232 -19.547 L 108.81 -19.834 L 100.477 -7.542 C 93.583 2.629 91.69 8.767 94.796 10.873 C 94.411 11.441 95.345 13.105 97.598 15.865 L 98.315 15.734 L 99.465 14.037 C 99.798 13.546 98.77 11.408 96.383 7.623 C 97.412 6.106 97.139 4.684 95.564 3.359 L 95.856 2.929 L 98.125 3.235 L 98.548 3.521 C 97.089 5.673 97.73 8.375 100.471 11.627 L 100.745 13.057 L 106.842 14.097 L 106.978 14.805 C 108.105 13.451 109.674 12.658 111.684 12.426 L 111.82 13.134 L 111.534 13.556 C 108.836 15.183 106.609 15.735 104.853 15.213 C 102.325 14.071 100.332 14.577 98.873 16.729 C 105.973 19.633 111.186 18.632 114.511 13.726 L 119.251 7.661 L 127.583 -4.631 L 129.728 -6.886 L 130.014 -7.308 L 129.592 -7.594 C 128.814 -8.122 123.129 -1.256 112.536 13.004 L 112.106 12.712 L 112.548 11.151 C 123.356 -2.962 129.466 -9.54 130.878 -8.583 L 134.012 -9.551 L 134.434 -9.265 C 132.057 -8.195 130.055 -6.459 128.428 -4.058 L 116.072 14.168 L 114.213 16.001 L 114.927 15.857 L 117.457 19.432 L 112.445 24.081 L 109.916 20.506 L 110.456 25.197 C 107.789 25.556 105.421 25.396 103.351 24.718 L 103.929 23.865 L 103.507 23.579 C 102.931 24.429 102.362 24.663 101.799 24.282 L 99.68 22.845 C 98.653 22.149 97.765 20.722 97.014 18.562 C 95.855 19.427 94.2 19.131 92.048 17.672 C 88.765 15.446 86.942 12.354 86.581 8.396 L 90.272 8.422 L 89.98 8.852 L 88.278 9.546 C 89.367 12.347 90.956 14.869 93.042 17.114 C 94.695 17.718 95.689 17.772 96.026 17.275 C 93.482 15.551 92.093 11.517 91.859 5.172 L 97.046 -4.298 L 107.679 -19.984 C 108.66 -21.43 109.242 -23.507 109.428 -26.216 Z M 133.284 -7.568 L 134.148 -8.843 L 134.57 -8.557 L 133.706 -7.282 L 133.284 -7.568 Z M 108.142 -25.228 L 108.433 -25.658 L 108.855 -25.372 L 107.841 -22.967 L 106.691 -21.27 L 93.216 -5.046 L 92.066 -3.349 L 92.893 0.92 L 92.462 0.628 L 90.358 -2.647 L 90.644 -3.069 C 94.141 -8.228 99.445 -14.532 106.555 -21.978 L 108.142 -25.228 Z M 130.853 -4.891 L 132.861 -7.855 L 133.284 -7.568 L 123.911 10.82 L 119.602 17.177 L 115.35 16.143 L 119.613 15.325 L 121.908 11.939 C 124.28 8.441 127.261 2.83 130.853 -4.891 Z M 109.668 -21.1 L 109.246 -21.386 L 108.674 -20.542 L 109.096 -20.256 L 109.668 -21.1 Z M 111.672 14.279 L 112.25 13.426 L 112.672 13.712 L 112.094 14.565 L 111.672 14.279 Z M 113.927 16.423 L 113.641 16.846 L 109.78 19.797 L 111.054 20.661 L 112.887 22.52 L 116.032 19.699 L 113.927 16.423 Z M 86.595 6.557 L 89.343 -0.242 L 92.737 2.059 L 92.451 2.481 C 90.896 1.733 89.902 1.679 89.468 2.319 L 89.182 2.742 L 88.167 5.147 L 91.561 7.447 L 91.275 7.869 L 86.595 6.557 Z M 98.853 18.576 C 98.471 19.139 98.938 20.28 100.252 22.001 C 105.137 23.919 108.023 24.224 108.91 22.916 L 109.494 20.219 L 109.071 19.933 C 105.46 20.627 102.054 20.174 98.853 18.576 ZM 174.605 27.407 L 175.43 26.605 L 175.834 27.021 L 175.009 27.823 L 174.605 27.407 Z M 157.424 13.051 L 159.844 11.409 L 160.249 11.824 L 158.6 13.428 L 157.015 13.448 L 157.424 13.051 Z M 174.991 28.636 L 175.395 29.052 L 174.979 29.456 L 173.342 30.239 L 172.945 29.83 L 174.178 28.631 L 174.991 28.636 Z M 174.155 30.258 L 174.957 31.082 L 172.915 31.464 C 168.726 37.675 165.025 42.342 161.813 45.466 L 160.937 49.442 L 160.529 49.839 L 160.596 45.045 L 161.42 44.244 L 173.342 30.239 L 174.155 30.258 Z M 156.195 13.436 L 156.611 13.032 L 157.015 13.448 L 155.765 15.375 L 154.525 16.581 L 154.169 16.216 L 156.195 13.436 Z M 157.341 15.447 L 158.173 14.638 L 158.577 15.054 L 157.745 15.863 L 157.341 15.447 Z M 170.498 29.796 L 171.323 28.994 L 171.727 29.41 L 170.902 30.212 L 170.498 29.796 Z M 172.91 32.277 L 173.735 31.475 L 174.536 32.3 L 172.91 32.277 Z M 155.731 17.822 L 157.745 15.863 L 157.345 18.664 L 155.731 17.822 Z M 150.91 16.177 L 154.973 13.829 L 155.371 14.238 L 154.173 15.402 L 150.898 16.983 L 150.501 16.574 L 150.91 16.177 Z M 166.816 34.186 L 169.728 29.736 L 170.934 30.976 L 169.694 32.182 L 162.706 39.785 C 154.509 47.756 149.353 50.653 147.239 48.479 L 146.841 48.07 L 146.433 48.467 L 148.391 50.482 C 145.82 52.982 141.778 52.928 136.266 50.319 C 135.348 51.211 134.004 51.206 132.235 50.305 L 132.651 49.9 L 147.661 44.051 L 147.264 43.642 L 146.088 40.768 C 143.299 41.333 140.162 43.309 136.677 46.697 L 136.322 46.331 L 140.036 42.72 L 143.237 40.318 L 140.874 37.888 C 138.059 40.625 136.403 43.574 135.906 46.736 L 135.54 47.091 C 135.568 42.778 137.219 39.029 140.493 35.846 L 140.481 36.666 L 141.687 37.906 L 144.062 39.517 L 144.05 40.337 L 152.384 27.505 L 152.793 27.108 L 153.19 27.517 L 146.111 39.142 L 146.917 39.154 L 147.321 39.569 L 147.691 42.417 L 148.504 42.436 L 147.68 43.238 L 148.482 44.062 C 156.626 39.834 161.786 36.663 163.961 34.549 L 164.358 34.957 L 162.752 36.519 C 155.563 41.547 147.415 46.02 138.308 49.937 L 139.109 50.762 C 140.271 51.957 142.827 51.587 146.777 49.653 L 144.811 47.631 L 150.009 48.114 C 155.005 44.866 159.658 41.145 163.97 36.953 L 166.816 34.186 Z M 172.11 33.85 L 172.942 33.041 L 173.346 33.457 L 172.515 34.266 L 172.11 33.85 Z M 172.908 35.487 L 173.732 34.686 L 174.136 35.102 L 173.312 35.903 L 172.908 35.487 Z M 172.106 34.663 L 172.515 34.266 L 172.912 34.674 L 171.667 36.693 L 171.251 37.098 L 170.847 36.682 L 172.106 34.663 Z M 166.85 31.739 L 168.09 30.533 L 168.488 30.942 L 167.248 32.148 L 166.85 31.739 Z M 172.896 36.308 L 173.312 35.903 L 173.24 37.479 L 172.824 37.884 L 172.896 36.308 Z M 153.654 20.649 L 155.719 18.642 L 156.116 19.05 L 154.052 21.058 L 153.654 20.649 Z M 150.875 18.609 L 152.94 16.601 L 153.345 17.017 L 151.28 19.025 L 150.875 18.609 Z M 155.28 20.672 L 156.112 19.864 L 156.51 20.272 L 155.678 21.081 L 155.28 20.672 Z M 156.082 21.497 L 156.914 20.688 L 157.318 21.104 L 156.486 21.913 L 156.082 21.497 Z M 166.446 31.323 L 166.85 31.739 L 166.434 32.144 L 154.229 37.665 L 151.787 40.848 L 151.382 40.433 L 150.592 38.802 L 150.183 39.199 L 148.539 39.99 L 148.516 41.616 L 148.1 42.02 L 148.153 38.761 L 148.959 38.772 L 150.199 37.566 L 155.621 25.153 C 154.479 31.563 153.204 35.454 151.794 36.825 L 152.614 36.836 L 153.011 37.245 L 151.81 39.222 L 152.207 39.631 L 152.623 39.227 L 154.252 36.039 C 161.248 33.997 165.313 32.425 166.446 31.323 Z M 164.445 57.998 L 172.824 37.884 C 170.059 50.159 167.529 57.412 165.235 59.643 L 164.826 60.04 L 160.014 60.786 L 160.003 61.606 L 158.797 60.366 L 164.445 57.998 Z M 138.988 30.167 L 153.273 18.607 L 153.67 19.016 L 151.605 21.024 C 140.688 31.638 134.31 35.999 132.469 34.107 L 131.263 32.866 L 130.848 33.271 L 133.253 35.744 C 130.165 38.746 125.719 38.55 119.916 35.154 C 119.09 35.958 118.007 35.672 116.668 34.295 L 117.084 33.891 C 134.266 28.371 145.259 23.275 150.062 18.605 L 150.46 19.013 L 149.219 20.219 C 142.219 24.888 135.558 28.686 129.237 31.614 L 129.642 32.03 C 132.785 33.79 135.901 33.169 138.988 30.167 Z M 164.358 34.957 L 166.832 32.552 L 167.236 32.968 L 164.762 35.373 L 164.358 34.957 Z M 170.843 37.495 L 171.251 37.098 L 171.656 37.514 C 167.248 46.56 161.185 56.175 153.465 66.359 L 153.863 66.767 C 156.125 67.19 158.417 66.272 160.74 64.014 C 161.567 63.21 161.46 62.273 160.419 61.202 L 160.827 60.804 L 163.972 62.475 L 163.606 62.831 L 161.946 65.254 C 159.589 67.545 156.349 68.316 152.225 67.565 L 150.172 68.752 L 148.966 67.512 L 149.382 67.107 C 156.475 60.211 159.487 56.213 158.418 55.113 L 158.834 54.709 L 159.635 55.533 C 163.602 50.068 167.337 44.056 170.843 37.495 Z M 150.097 16.158 L 150.501 16.574 L 150.085 16.979 C 142.498 20.068 137.878 22.417 136.225 24.026 L 135.82 23.61 L 138.269 20.433 C 142.382 19.643 146.324 18.218 150.097 16.158 Z M 154.445 22.28 L 155.269 21.478 L 155.673 21.894 L 154.849 22.696 L 154.445 22.28 Z M 155.651 23.52 L 156.475 22.719 L 156.88 23.134 L 156.055 23.936 L 155.651 23.52 Z M 152.811 22.264 L 154.052 21.058 L 154.456 21.474 C 147.741 29.314 144.725 33.586 145.408 34.288 L 144.992 34.693 C 143.803 33.469 146.409 29.326 152.811 22.264 Z M 154.017 23.504 L 154.849 22.696 L 155.253 23.112 L 154.422 23.92 L 154.017 23.504 Z M 155.223 24.745 L 156.055 23.936 L 156.452 24.345 L 155.621 25.153 L 155.223 24.745 Z M 153.188 25.119 L 154.013 24.318 L 154.41 24.726 L 153.586 25.528 L 153.188 25.119 Z M 152.389 26.692 L 153.586 25.528 L 153.99 25.944 L 152.793 27.108 L 152.389 26.692 Z M 133.453 21.992 L 136.259 21.579 L 134.996 24.411 L 135.014 23.598 L 134.61 23.183 L 133.838 23.221 L 132.106 27.221 C 132.024 24.688 132.473 22.945 133.453 21.992 Z M 158.99 46.607 L 159.394 47.023 L 159.715 49.835 L 158.956 49.053 L 157.715 50.259 L 158.857 53.083 L 158.448 53.48 L 157.242 52.24 C 156.997 50.219 157.579 48.341 158.99 46.607 Z M 135.816 24.423 L 136.213 24.832 L 134.973 26.038 L 134.996 24.411 L 135.816 24.423 Z M 142.142 34.242 L 143.798 32.632 L 144.588 34.277 L 143.782 34.265 L 142.95 35.074 C 142.401 35.609 142.525 36.287 143.325 37.109 L 142.916 37.506 L 141.717 36.273 L 142.142 34.242 Z M 159.307 50.232 L 160.933 50.255 L 160.921 51.075 L 160.513 51.472 L 159.307 50.232 Z M 143.763 35.078 L 145.39 35.101 L 144.958 37.139 L 144.554 36.723 L 143.763 35.078 Z M 130.988 22.771 C 131.726 24.257 131.828 25.739 131.293 27.216 L 130.889 26.801 L 129.743 24.79 C 126.826 26.018 124.513 27.463 122.801 29.127 L 121.977 29.928 L 120.359 32.31 L 120.351 29.906 L 122.824 27.501 C 125.181 25.209 127.902 23.633 130.988 22.771 Z M 142.5 37.911 L 142.916 37.506 L 143.725 38.338 L 143.309 38.742 L 142.5 37.911 Z M 155.68 50.634 L 157.628 53.469 L 159.25 54.305 C 158.695 54.844 157.63 54.303 156.055 52.683 C 152.293 56.34 150.486 60.478 150.633 65.095 L 150.229 64.68 C 149.06 59.986 150.877 55.304 155.68 50.634 Z M 130.884 27.614 L 132.511 27.637 L 131.686 28.438 L 130.884 27.614 Z M 130.829 34.084 L 128.424 31.61 L 121.958 34.772 L 122.314 35.138 C 125.966 36.943 128.803 36.863 130.825 34.897 L 130.829 34.084 ZM 204.824 68.377 L 207.97 67.61 L 208.242 68.042 L 186.959 78.442 C 187.796 79.932 187.818 80.928 187.023 81.429 L 186.319 81.27 L 186.591 81.701 C 187.503 83.546 187.615 84.686 186.927 85.12 L 186.001 82.677 L 184.635 80.512 L 185.066 80.24 L 185.77 80.399 L 186.201 80.127 L 185.929 79.695 L 184.244 78.937 L 185.538 78.121 L 182.806 73.791 L 183.246 73.513 C 184.022 74.742 187.872 74.13 194.798 71.676 L 195.07 72.107 L 193.767 72.929 L 184.771 74.975 L 185.865 76.709 C 186.413 77.577 191.958 75.49 202.5 70.447 L 204.121 68.218 L 204.665 69.081 L 204.824 68.377 Z M 204.343 70.501 L 206.509 69.135 L 206.781 69.567 L 205.16 71.795 L 204.456 71.636 L 204.184 71.205 L 204.343 70.501 Z M 202.115 68.881 L 202.977 68.336 L 203.25 68.768 L 202.387 69.312 L 202.115 68.881 Z M 202.45 72.299 L 205.006 72.507 L 204.575 72.779 L 201.86 73.274 L 187.158 87.398 L 186.886 86.966 L 186.496 85.392 L 187.199 85.551 C 193.217 79.334 198.301 74.917 202.45 72.299 Z M 200.972 68.999 L 201.843 68.449 L 202.115 68.881 L 201.244 69.43 L 200.972 68.999 Z M 200.653 70.406 L 202.387 69.312 L 202.659 69.743 L 200.925 70.837 L 200.653 70.406 Z M 203.272 73.601 L 204.143 73.052 L 204.415 73.483 L 203.544 74.032 L 203.272 73.601 Z M 199.831 69.103 L 200.694 68.559 L 200.972 68.999 L 200.109 69.543 L 199.831 69.103 Z M 202.682 74.577 L 203.544 74.032 L 203.816 74.464 L 202.954 75.008 L 202.682 74.577 Z M 198.697 69.216 L 199.559 68.672 L 199.831 69.103 L 198.969 69.648 L 198.697 69.216 Z M 198.647 71.068 L 200.381 69.974 L 200.653 70.406 L 198.919 71.5 L 198.647 71.068 Z M 201.261 74.255 L 202.563 73.433 L 202.841 73.873 L 201.538 74.695 L 201.261 74.255 Z M 202.083 75.558 L 202.954 75.008 L 203.226 75.439 L 202.355 75.989 L 202.083 75.558 Z M 197.553 69.334 L 198.425 68.785 L 198.697 69.216 L 197.826 69.766 L 197.553 69.334 Z M 200.244 75.511 L 201.538 74.695 L 201.811 75.126 L 200.517 75.943 L 200.244 75.511 Z M 201.492 76.533 L 202.355 75.989 L 202.627 76.42 L 201.764 76.965 L 201.492 76.533 Z M 197.281 68.903 L 197.553 69.334 L 196.691 69.879 L 180.306 71.739 L 186.568 88.373 L 186.84 88.804 L 187.271 88.532 L 186.727 87.67 L 187.158 87.398 L 187.43 87.829 L 188.637 90.697 C 190.973 86.804 194.789 81.976 200.085 76.215 L 200.517 75.943 L 200.789 76.374 C 195.492 81.734 191.715 86.943 189.459 92 L 190.003 92.863 C 192.85 91.066 195.639 87.49 198.369 82.134 L 200.739 78.226 L 201.179 77.949 L 201.451 78.38 L 194.605 90.562 L 192.872 91.656 L 193.149 92.096 L 194.012 91.551 C 194.488 92.307 193.698 93.609 191.641 95.459 L 188.228 95.803 L 188.061 96.512 L 187.516 95.649 L 187.956 95.372 L 191.528 94.324 L 192.559 93.071 L 192.286 92.64 C 191.131 93.369 189.898 93.339 188.588 92.55 L 180.566 106.691 L 181.11 107.554 L 180.407 107.395 L 178.033 111.316 C 177.543 110.214 177.679 108.512 178.442 106.21 C 176.304 102.822 176.975 98.769 180.454 94.051 L 183.349 97.664 L 182.477 98.214 C 181.567 96.77 180.824 96.23 180.249 96.593 C 177.991 100.697 177.532 103.813 178.873 105.938 L 188.038 91.678 L 185.584 87.788 L 181.576 77.594 L 180.872 77.435 L 178.276 79.073 L 177.732 78.21 L 177.773 76.363 L 161.665 78.663 L 161.937 79.094 C 163.051 80.859 166.111 81.549 171.118 81.165 L 169.911 78.296 C 170.404 78.041 172.236 78.702 175.407 80.28 L 179.257 79.672 L 179.411 78.96 L 180.713 78.138 C 179.818 79.917 180.371 82.394 182.374 85.568 L 185.537 89.626 C 183.733 90.765 182.822 93.156 182.804 96.801 L 182.532 96.37 C 181.006 93.951 181.683 91.506 184.562 89.036 L 179.865 83.521 L 178.666 80.647 C 175.598 82.181 173.244 81.648 171.604 79.049 L 171.164 79.327 L 173.075 82.354 L 172.643 82.627 C 166.706 83.448 162.576 82.018 160.253 78.336 C 158.734 78.49 157.61 77.989 156.881 76.834 L 166.979 76.516 L 177.932 75.66 L 179.553 73.431 L 178.731 72.129 C 178.368 71.554 177.755 71.538 176.893 72.083 L 175.272 74.311 L 174.841 74.583 L 174.568 74.152 L 178.236 69.414 L 178.508 69.846 C 179.191 70.928 185.449 70.614 197.281 68.903 Z M 196.364 71.291 L 198.375 70.637 L 198.647 71.068 L 197.353 71.885 L 195.347 72.547 L 195.07 72.107 L 196.364 71.291 Z M 200.902 77.509 L 201.764 76.965 L 202.042 77.404 L 201.179 77.949 L 200.902 77.509 Z M 181.831 73.2 L 182.262 72.928 L 182.806 73.791 L 182.375 74.063 L 181.831 73.2 Z M 181.463 76.459 L 179.825 73.863 C 178.891 75.256 178.534 76.289 178.754 76.962 L 179.298 77.825 L 181.463 76.459 Z M 191.759 96.602 L 192.032 97.034 C 188.721 101.944 186.324 104.867 184.842 105.803 L 181.383 107.985 L 181.11 107.554 C 185.114 105.028 187.995 101.598 189.754 97.265 L 189.045 97.097 L 188.5 96.234 C 190.194 95.97 191.28 96.093 191.759 96.602 Z M 174.656 70.467 L 174.928 70.898 L 174.296 73.721 L 174.019 73.281 L 174.178 72.578 L 173.906 72.146 C 169.385 72.177 165.14 73.444 161.17 75.948 L 160.893 75.509 L 162.786 73.711 C 166.307 72.096 170.264 71.015 174.656 70.467 Z M 185.809 90.058 L 186.241 89.785 L 186.79 90.657 L 186.359 90.929 L 185.809 90.058 Z M 173.969 75.133 L 174.841 74.583 L 175.113 75.015 L 174.242 75.564 L 173.969 75.133 ZM 228.276 113.793 L 230.878 117.733 L 229.515 119.905 L 229.257 117.808 L 227.207 115.306 L 228.276 113.793 Z M 231.429 119.171 L 231.611 119.647 C 233.367 124.229 232.369 129.73 228.618 136.151 C 228.861 136.786 228.186 137.409 226.593 138.019 C 226.349 137.384 226.704 136.884 227.656 136.519 L 227.947 135.851 L 227.764 135.375 L 226.264 134.311 L 224.768 126.103 L 227.159 125.187 L 226.976 124.711 L 224.403 125.151 L 224.038 124.198 C 221.291 117.027 215.951 113.59 208.019 113.887 L 202.575 115.416 L 202.393 114.94 L 203.345 114.575 L 203.163 114.099 C 214.127 111.226 221.403 114.47 224.991 123.833 L 228.405 124.164 L 227.672 122.249 C 224.788 114.723 218.911 111.31 210.041 112.01 L 208.126 112.743 L 207.944 112.267 L 209.382 111.716 C 214.045 109.929 219.568 111.468 225.951 116.333 C 225.462 115.057 225.538 114.296 226.179 114.05 C 221.15 109.402 215.588 108.246 209.493 110.581 L 206.333 112.338 L 205.371 112.707 L 205.189 112.23 L 209.784 109.913 L 211.698 109.179 C 216.996 107.149 222.079 108.493 226.949 113.209 C 226.928 115.409 226.656 116.609 226.133 116.809 L 229.11 121.698 C 229.909 124.733 230.15 127.75 229.836 130.748 L 230.312 130.565 C 231.963 127.234 232.262 124.196 231.21 121.45 L 231.024 120.965 L 229.586 121.516 C 229.312 120.8 229.926 120.018 231.429 119.171 Z M 228.297 125.308 L 226.859 125.859 C 226.224 126.102 226.443 128.574 227.516 133.275 L 227.702 133.76 L 228.655 133.395 C 228.903 129.274 228.784 126.578 228.297 125.308 Z M 211.444 107.092 L 211.93 106.906 L 212.295 107.858 L 209.419 108.96 L 209.236 108.484 L 211.444 107.092 Z M 201.817 109.132 L 209.829 107.154 L 210.015 107.639 C 199.775 111.563 194.352 116.015 193.747 120.994 C 192.084 125.244 192.115 129.619 193.839 134.12 L 196.147 138.719 L 196.451 138.056 L 197.109 138.35 L 201.89 136.518 L 207.799 141.933 L 206.983 145.533 L 210.107 146.531 L 210.592 146.345 L 208.092 141.274 L 210.529 137.599 L 210.711 138.075 C 211.076 139.028 210.621 139.748 209.344 140.237 L 211.362 145.504 L 214.815 150.21 L 215.291 150.028 L 213.899 147.82 L 212.432 143.991 L 211.589 136.09 L 211.113 136.272 L 210.819 136.931 L 210.454 135.978 L 211.407 135.614 L 209.94 131.785 L 208.987 132.15 L 209.281 131.491 L 209.098 131.015 L 206.754 129.172 L 206.571 128.696 L 207.524 128.331 C 208.084 128.116 209.247 128.766 211.013 130.281 L 211.489 130.099 L 211.195 130.758 L 211.378 131.234 L 212.587 132.966 L 213.102 137.159 L 215.492 136.243 L 214.394 133.377 C 213.981 132.3 213.074 131.366 211.671 130.575 L 212.148 130.393 C 214.492 130.772 216.001 131.84 216.673 133.596 L 216.856 134.072 L 217.286 136.648 L 216.627 136.355 L 216.151 136.537 L 214.419 137.747 L 212.808 137.818 L 212.991 138.294 L 213.567 144.103 L 214.851 147.455 L 217.453 151.395 L 217.939 151.209 L 216.537 149.004 L 215.986 147.566 C 215.123 143.878 215.089 141.881 215.886 141.575 L 214.018 139.55 L 215.932 138.816 L 215.75 138.34 L 215.078 138.041 L 214.895 137.564 L 215.381 137.378 L 216.992 137.307 L 216.956 140.063 L 216.297 139.769 L 215.811 139.955 L 215.994 140.431 L 216.666 140.731 L 216.654 147.856 L 218.229 150.541 L 218.415 151.026 L 217.818 152.347 C 216.657 152.521 214.37 150.838 210.957 147.298 C 209.681 147.787 207.62 147.663 204.775 146.925 C 201.351 148.237 198.032 147.681 194.819 145.257 L 194.425 139.925 L 194.901 139.742 L 195.27 140.704 L 195.892 143.753 C 198.187 146.165 200.33 146.99 202.322 146.226 L 203.275 145.861 C 199.488 143.971 196.636 141.773 194.719 139.266 L 194.242 139.449 L 192.768 142.755 L 192.282 142.941 L 188.947 137.087 L 187.484 133.268 C 186.704 131.232 186.572 129.455 187.09 127.936 L 189.845 127.972 L 190.028 128.448 C 188.434 129.059 187.942 130.161 188.553 131.755 L 189.534 135.77 L 192.511 140.658 L 192.987 140.476 L 194.536 138.79 L 192.107 135.33 L 191.166 128.569 L 190.214 128.934 L 190.798 127.607 L 191.456 127.901 C 190.006 124.116 192.367 118.828 198.539 112.037 L 199.977 111.486 L 199.791 111 L 198.353 111.551 C 193.41 113.445 189.887 118.086 187.785 125.474 L 189.663 127.496 L 187.015 126.315 C 187.756 118.356 192.69 112.628 201.817 109.132 Z M 205.599 110.424 L 207.514 109.69 L 207.696 110.166 L 205.782 110.9 L 205.599 110.424 Z M 204.087 109.354 L 203.904 108.878 L 200.561 110.159 L 200.744 110.635 L 204.087 109.354 Z M 203.868 111.633 L 205.306 111.082 L 205.488 111.559 L 204.05 112.11 L 203.868 111.633 Z M 203.942 113.254 L 205.371 112.707 L 205.553 113.183 L 204.125 113.73 L 203.942 113.254 Z M 203.098 112.475 L 204.05 112.11 L 204.236 112.595 C 201.285 113.726 198.619 118.217 196.237 126.069 L 196.9 126.372 L 197.779 131.518 L 200.195 134.972 L 196.927 137.874 L 197.743 134.274 L 196.341 132.069 C 194.066 126.13 195.9 119.944 201.846 113.511 L 203.098 112.475 Z M 218.598 151.502 L 219.074 151.32 L 219.621 152.749 L 218.304 152.161 L 218.598 151.502 Z M 208.511 132.332 L 208.987 132.15 C 208.231 133.996 208.082 135.517 208.54 136.712 L 208.722 137.188 L 210.16 136.637 C 210.358 137.154 209.647 138.158 208.027 139.65 L 207.476 138.212 C 206.76 136.344 207.105 134.384 208.511 132.332 Z M 196.815 139.009 C 198.712 141.573 201.662 143.552 205.665 144.945 L 205.702 142.19 C 202.965 138.848 200.003 137.788 196.815 139.009 ZM 248.797 162.222 L 248.889 162.723 C 247.086 163.055 246.251 163.579 246.382 164.293 L 243.48 163.719 L 243.585 164.29 L 243.674 167.588 C 245.966 168.034 247.495 170.335 248.26 174.492 L 246.628 174.792 L 246.731 175.353 L 248.364 175.052 L 248.851 177.698 L 248.29 177.801 L 247.687 177.394 L 247.126 177.497 L 247.582 176.823 L 247.386 175.761 C 246.298 175.962 245.688 175.704 245.556 174.99 L 246.034 174.383 L 244.962 174.581 L 244.857 174.01 L 246.991 173.617 L 246.899 173.116 C 246.396 170.388 245.387 168.903 243.872 168.66 L 243.394 169.267 L 244.287 174.115 L 244.962 174.581 L 244.484 175.187 L 244.587 175.748 L 245.252 176.154 L 244.982 177.892 L 247.326 187.415 L 247.827 187.322 L 247.521 179.641 L 245.355 176.715 L 246.929 176.425 L 246.519 177.019 L 248.488 178.873 C 248.459 184.606 248.792 189.361 249.488 193.138 L 248.918 193.243 L 248.42 190.538 L 248.021 191.191 L 247.451 191.296 L 247.721 189.559 C 245.621 184.305 244.053 178.866 243.017 173.241 L 242.124 168.392 C 240.997 168.6 240.451 170.568 240.487 174.296 L 240.988 174.204 L 242.516 173.333 L 240.206 175.975 L 239.704 176.067 L 239.507 174.995 C 239.177 170.63 240.019 168.261 242.032 167.891 L 241.834 166.819 L 240.772 167.014 L 240.669 166.454 L 242.302 166.153 L 242.104 165.081 L 240.472 165.382 L 240.379 164.88 L 242.513 164.487 L 242.408 163.917 L 224.436 165.6 L 221.417 167.264 C 221.309 166.674 222.249 165.762 224.238 164.528 L 224.135 163.967 C 228.866 164.221 237.087 163.639 248.797 162.222 Z M 246.556 189.255 L 247.058 189.162 L 247.253 190.224 L 246.752 190.317 L 246.556 189.255 Z M 246.451 188.684 L 246.556 189.255 L 245.986 189.36 C 243.47 185.566 241.477 181.679 240.005 177.7 L 241.838 175.674 L 241.671 177.912 C 242.15 180.515 243.744 184.105 246.451 188.684 Z M 240.261 167.108 L 240.772 167.014 L 240.866 167.526 C 231.921 171.037 227.545 173.318 227.738 174.367 L 227.281 175.03 L 227.386 175.601 C 228.474 175.4 229.508 175.949 230.485 177.247 L 230.007 177.853 L 231.277 178.728 L 231.472 179.79 L 228.371 180.951 C 228.24 180.236 228.718 179.779 229.807 179.578 L 229.414 177.444 L 227.478 176.102 L 227.663 179.973 L 229.159 185.229 L 229.752 188.445 L 229.24 188.539 C 227.87 182.501 226.933 179.528 226.428 179.621 L 226.905 179.004 L 226.407 176.3 L 225.335 176.497 L 225.242 175.996 L 226.314 175.798 L 226.013 174.166 L 218.051 176.151 L 216.979 176.348 L 213.742 173.619 L 214.243 173.527 L 217.854 175.079 C 223.372 173.717 230.841 171.06 240.261 167.108 Z M 238.898 165.672 L 239.96 165.476 L 240.065 166.046 L 220.375 170.771 L 211.819 172.347 L 209.002 172.286 L 208.893 174.512 L 211.933 176.169 L 213.566 175.868 L 212.913 175.47 L 212.415 172.766 L 213.079 173.223 L 213.649 173.118 L 213.171 173.724 L 213.276 174.295 L 215.509 177.199 L 213.306 177.604 L 212.701 177.136 L 212.131 177.241 L 212.234 177.802 L 213.397 180.913 L 213.5 181.473 L 210.378 182.577 L 209.724 182.169 L 209.62 181.608 L 211.662 180.713 L 211.267 178.569 C 210.655 176.425 209.93 175.43 209.091 175.584 C 208.376 175.716 209.174 182.056 211.485 194.605 L 210.925 194.708 C 209.038 185.423 207.823 180.831 207.279 180.931 L 204.374 183.154 L 204.27 182.593 C 204.274 179.556 204.621 177.451 205.314 176.28 C 203.685 174.024 202.576 172.951 201.986 173.059 C 200.897 173.26 200.287 173.003 200.156 172.288 L 199.958 171.216 L 203.059 170.055 L 203.257 171.127 L 215.797 169.926 L 215.507 168.353 L 216.16 168.751 L 216.671 168.657 L 218.122 164.556 L 219.194 164.359 L 221.991 164.362 L 222.095 164.923 L 220.857 167.367 L 221.51 167.766 L 219.877 168.066 L 220.556 165.735 L 219.484 165.932 L 216.462 170.393 L 228.234 168.225 L 238.898 165.672 Z M 229.434 180.755 L 231.076 180.453 L 231.471 182.597 L 230.795 182.131 L 230.294 182.224 L 230.399 182.794 L 230.993 183.203 L 231.563 183.098 C 231.103 184.613 231.144 186.839 231.685 189.777 L 231.114 189.882 L 230.419 186.105 L 230.594 183.856 L 229.129 181.92 L 230.201 181.722 L 229.526 181.257 L 229.434 180.755 Z M 230.312 188.342 L 231.404 191.455 L 231.705 193.088 L 231.203 193.18 L 229.947 189.507 L 229.752 188.445 L 230.312 188.342 Z M 228.875 189.704 L 229.436 189.601 L 229.633 190.673 L 229.073 190.776 L 228.875 189.704 Z M 227.807 187.105 L 228.875 189.704 C 228.161 189.836 227.707 189.377 227.513 188.328 L 227.305 187.197 L 227.807 187.105 Z M 224.855 179.911 L 225.927 179.713 L 226.03 180.274 L 224.084 181.741 L 223.886 180.669 C 223.547 178.826 223.874 177.661 224.869 177.173 L 225.067 178.245 L 224.855 179.911 Z M 225.248 182.045 L 227.305 187.197 C 226.676 187.313 225.668 185.852 224.281 182.813 L 224.687 182.148 L 225.248 182.045 Z M 217.143 165.255 L 216.579 168.155 L 216.067 168.249 C 215.804 166.82 214.771 166.271 212.968 166.604 L 209.762 167.194 L 205.008 168.598 L 204.506 168.691 L 204.412 168.179 C 207.568 166.473 210.51 165.368 213.238 164.866 C 215.732 164.535 217.034 164.665 217.143 165.255 Z M 211.45 182.379 L 213.024 182.09 L 213.614 185.296 L 211.843 184.513 L 212.253 183.92 L 212.147 183.349 L 211.554 182.94 L 211.45 182.379 Z M 211.181 184.117 L 213.31 186.46 C 212.97 192.637 213.113 197.427 213.74 200.83 L 213.179 200.933 C 212.761 199.139 212.237 198.3 211.608 198.416 L 212.238 186.657 L 209.921 183.241 L 211.646 183.441 L 211.181 184.117 Z M 207.261 174.813 L 207.428 172.576 L 204.724 173.074 L 204.13 172.665 L 203.559 172.77 L 203.652 173.271 L 206.189 175.01 L 207.261 174.813 Z M 207.757 180.324 L 207.366 175.383 C 205.772 176.633 205.153 178.221 205.508 180.149 L 205.613 180.719 L 207.757 180.324 Z M 211.318 196.843 L 211.412 197.354 L 210.91 197.446 C 207.086 190.816 204.973 186.409 204.571 184.226 L 206.006 182.853 L 206.508 182.761 L 206.1 183.365 L 206.493 185.499 C 206.95 187.977 208.558 191.758 211.318 196.843 Z M 203.936 168.796 L 204.506 168.691 L 203.63 169.95 L 203.059 170.055 L 203.936 168.796 Z" transform="matrix(0.6857720017433167, -0.7283129692077637, 0.7278180122375488, 0.6862389445304871, 66.9523696899414, 98.1441650390625)" style="fill: rgb(9, 88, 105); text-transform: uppercase; white-space: pre;"/>
</svg>